<svg xmlns="http://www.w3.org/2000/svg" viewBox="0 0 853.95 812.33"><defs><style>.cls-1{fill:#66b9bf;}.cls-2{font-size:84.41px;}.cls-2,.cls-3,.cls-6{fill:#f2f2f2;}.cls-2,.cls-3{font-family:MyriadPro-Regular, Myriad Pro;}.cls-3{font-size:156.36px;}.cls-10,.cls-4{opacity:0.2;}.cls-5{fill:#e37222;}.cls-7{fill:#07889b;}.cls-8,.cls-9{fill:none;}.cls-8{stroke:#07889b;stroke-linejoin:round;stroke-width:12px;stroke-dasharray:12 24;}</style></defs><title>Recurso 8</title><g id="Capa_2" data-name="Capa 2"><g id="Capa_1-2" data-name="Capa 1"><rect class="cls-1" x="2.83" y="623.28" width="295.2" height="189.05" rx="53.06"/><text class="cls-2" transform="translate(2.83 734.73) rotate(7.72) scale(1.01 1)">&lt;?php&gt;</text><rect class="cls-1" x="576.06" y="152.31" width="241.97" height="213.77" rx="53.06"/><rect class="cls-1" x="611.98" y="574.2" width="241.97" height="213.77" rx="53.06"/><text class="cls-3" transform="translate(753.22 745.61) scale(1.01 1)">{}</text><path class="cls-4" d="M468.85,766.45c.36,2.59-41.39,16.76-60.36.29a7.21,7.21,0,0,1-1.19-1.38c-12.12-17.87,21.16-94.77,58.08-93.18,36.65,1.58,66.65,76.7,49.31,96.74-14.49,16.76-66.13-.56-65.93-2.5C448.88,765.23,468.62,764.74,468.85,766.45Z"/><rect class="cls-4" x="300.42" y="749.18" width="306.26" height="30" rx="12.5"/><path class="cls-4" d="M732.09,705.58H175a35.75,35.75,0,0,1-24.73-10.25A34.86,34.86,0,0,1,140,670.6V329.24a35,35,0,0,1,35-35H732.09a35,35,0,0,1,35,35V670.6A35,35,0,0,1,732.09,705.58Z"/><path class="cls-5" d="M726.55,700.84H169.47a35.7,35.7,0,0,1-24.73-10.25,34.85,34.85,0,0,1-10.25-24.73V324.5a35,35,0,0,1,35-35H726.55a35,35,0,0,1,35,35V665.86A35,35,0,0,1,726.55,700.84Z"/><rect class="cls-6" x="438.01" y="295.29" width="20" height="20" rx="10"/><path class="cls-5" d="M452.11,766.45c.35,2.59-41.4,16.76-60.36.29a6.88,6.88,0,0,1-1.19-1.38c-12.12-17.87,21.16-94.77,58.08-93.18,36.65,1.58,66.65,76.7,49.31,96.74-14.49,16.76-66.13-.56-65.93-2.5C432.13,765.23,451.88,764.74,452.11,766.45Z"/><rect class="cls-5" x="292.38" y="746.16" width="306.26" height="30" rx="12.5"/><text/><rect class="cls-6" x="159.56" y="329.36" width="573.41" height="351.72" rx="34.97"/><rect class="cls-7" x="194.89" y="359.76" width="503.14" height="138.15" rx="20"/><rect class="cls-6" x="222.03" y="384.77" width="127.74" height="88.94" rx="22.12"/><rect class="cls-6" x="383.65" y="384.52" width="127.74" height="88.94" rx="22.12"/><rect class="cls-6" x="541.09" y="385.72" width="127.74" height="88.94" rx="22.12"/><path class="cls-7" d="M266.08,405.82a28,28,0,0,1,43.45,34.83,27.74,27.74,0,0,1-11.38,10.13.62.62,0,0,1-.75,0,.64.64,0,0,1-.25-.75q.5-3.37.63-5.88a22.33,22.33,0,0,0,7.38-7.88,21.9,21.9,0,0,0,1.62-17.57,21.56,21.56,0,0,0-3.19-6.06,23.24,23.24,0,0,0-4.75-4.75,21.22,21.22,0,0,0-6.06-3.13,21.7,21.7,0,0,0-6.88-1.13,22,22,0,0,0-22,21.89,21.8,21.8,0,0,0,2.62,10.5,21.57,21.57,0,0,0,7.13,7.88.75.75,0,0,1,.38.63,52.84,52.84,0,0,0,.62,5.5.64.64,0,0,1-.25.75.62.62,0,0,1-.75,0,28,28,0,0,1-7.56-45Zm11.44,27.95c.41.42.37.8-.13,1.13a7.8,7.8,0,0,0-2.62,3.12c-.34.67-.71.76-1.13.25a18,18,0,0,1,12.76-31.13,17.71,17.71,0,0,1,12.25,5.31,17.88,17.88,0,0,1-.5,25.82c-.42.51-.79.42-1.12-.25a7.91,7.91,0,0,0-2.63-3.12c-.5-.33-.54-.71-.12-1.13a11.79,11.79,0,0,0,3.62-8.63,11.64,11.64,0,0,0-3.69-8.69,11.4,11.4,0,0,0-8.81-3.31,12.24,12.24,0,0,0-11.51,11.5A11.4,11.4,0,0,0,277.52,433.77ZM280.21,420a8.14,8.14,0,1,1-2.32,5.69A7.74,7.74,0,0,1,280.21,420Zm11.06,38.83q-.75,2.88-5.37,2.88t-5.38-2.88a81.74,81.74,0,0,1-1.75-8.44,53.5,53.5,0,0,1-.88-8.19q0-5.5,8-5.5t8,5.5a54.53,54.53,0,0,1-.87,8.19A81.33,81.33,0,0,1,291.27,458.78Z"/><path class="cls-7" d="M447.52,437.43a5.88,5.88,0,0,1-2.44-.69,23,23,0,0,1-2.33-1.25c-.58-.38-1.44-1-2.57-1.89a14.36,14.36,0,0,0-1.82-1.31q-15.32-11.18-21.85-16.2a2.88,2.88,0,0,1-1.13-2.39v-2.38a6,6,0,0,1,6-6h52.23a6,6,0,0,1,6,6v2.38a2.88,2.88,0,0,1-1.13,2.39q-6.17,4.77-21.85,16.2a14.36,14.36,0,0,0-1.82,1.31c-1.13.88-2,1.51-2.57,1.89a24.13,24.13,0,0,1-2.33,1.25A5.92,5.92,0,0,1,447.52,437.43Zm30.89-16.19a.62.62,0,0,1,.82-.13.82.82,0,0,1,.44.75v25.62a6,6,0,0,1-6,6H421.41a6,6,0,0,1-6-6V421.86a.7.7,0,0,1,.44-.69.82.82,0,0,1,.82.07q4.14,3.13,19.33,14.18c.17.17.74.63,1.7,1.39s1.74,1.31,2.32,1.69,1.34.84,2.26,1.38a11.26,11.26,0,0,0,2.7,1.19,9,9,0,0,0,2.57.38,8.32,8.32,0,0,0,2.26-.31,15,15,0,0,0,2.14-.76,13.74,13.74,0,0,0,2.13-1.19c.76-.5,1.38-.94,1.89-1.32l1.75-1.32a14.22,14.22,0,0,0,1.39-1.13Q473.89,424.76,478.41,421.24Z"/><path class="cls-7" d="M588.31,432.71a15.9,15.9,0,0,0-5.67,5.1,16.78,16.78,0,0,0-2.83,7.25h-7.47a3.69,3.69,0,0,1-3.63-3.63v-3.62a7.36,7.36,0,0,1,7.25-7.25h7.25A7,7,0,0,1,588.31,432.71Zm-3.63-7.93a7.11,7.11,0,1,1,2.15-5.09A6.93,6.93,0,0,1,584.68,424.78Zm29,9.4a13,13,0,0,1,13,13v3.28a5.41,5.41,0,0,1-5.44,5.44H588.65a5.43,5.43,0,0,1-5.44-5.44v-3.28a13,13,0,0,1,13-13h1a17.22,17.22,0,0,0,15.41,0Zm.22-7.36a12.57,12.57,0,1,1,3.74-8.95A12.2,12.2,0,0,1,613.9,426.82ZM634,430.56a7.34,7.34,0,0,1,7.25,7.25v3.62a3.69,3.69,0,0,1-3.63,3.63H630.1a16.77,16.77,0,0,0-1.47-5,15.89,15.89,0,0,0-3-4.24,17.14,17.14,0,0,0-4.08-3.12,7,7,0,0,1,5.1-2.15Zm1.47-5.78a7.11,7.11,0,1,1,2.15-5.09A6.93,6.93,0,0,1,635.42,424.78Z"/><rect class="cls-7" x="194.01" y="512.54" width="127.74" height="138.15" rx="20"/><path class="cls-6" d="M234.14,558.3a33.65,33.65,0,1,1-9.81,23.75A32.33,32.33,0,0,1,234.14,558.3Zm39.44,27a2.67,2.67,0,0,0,1.22-1.22,3.59,3.59,0,0,0,.4-1.62,3.66,3.66,0,0,0-.4-1.63,2.65,2.65,0,0,0-1.22-1.21l-23.82-14.48a3,3,0,0,0-3.24,0,3.08,3.08,0,0,0-1.63,2.84v28.14a3.06,3.06,0,0,0,1.63,2.84,3,3,0,0,0,3.24,0Z"/><rect class="cls-7" x="385.56" y="512.54" width="127.74" height="138.15" rx="20"/><path class="cls-6" d="M448.73,585.76a15.88,15.88,0,0,1,15.77,15.78v4.94a5.6,5.6,0,0,1-5.65,5.65H417.41a5.62,5.62,0,0,1-5.65-5.65v-4.94a15.88,15.88,0,0,1,15.78-15.78h2a20.49,20.49,0,0,0,17.19,0Zm.06-8.18a15.08,15.08,0,1,1,4.41-10.66A14.55,14.55,0,0,1,448.79,577.58Zm36.44-1.24a1.85,1.85,0,0,1,1.35.53,1.87,1.87,0,0,1,.53,1.36V582a1.81,1.81,0,0,1-1.88,1.89h-7.54v7.53a1.87,1.87,0,0,1-.53,1.36,1.83,1.83,0,0,1-1.35.53H472a1.81,1.81,0,0,1-1.88-1.89v-7.53h-7.54a1.81,1.81,0,0,1-1.88-1.89v-3.76a1.81,1.81,0,0,1,1.88-1.89h7.54v-7.53a1.81,1.81,0,0,1,1.88-1.89h3.77a1.83,1.83,0,0,1,1.35.53,1.87,1.87,0,0,1,.53,1.36v7.53Z"/><rect class="cls-7" x="570.77" y="512.54" width="127.74" height="138.15" rx="20"/><path class="cls-6" d="M664.16,587.55a2.62,2.62,0,0,1-2.83,2.33h-36l.74,3.94h33.09a2.67,2.67,0,0,1,2.21,1.11,3,3,0,0,1,.62,2.46l-.74,3.07a6.32,6.32,0,0,1,3.94,6.15,6.89,6.89,0,0,1-13.78,0,6.48,6.48,0,0,1,2.09-4.92H627.63a6.48,6.48,0,0,1,2.09,4.92,6.89,6.89,0,1,1-10.33-6l-8.61-42.2h-8.61a2.94,2.94,0,0,1-2.95-2.95v-2a2.94,2.94,0,0,1,2.95-3h12.67a2.7,2.7,0,0,1,1.78.68,3.17,3.17,0,0,1,1,1.66l1.1,5.53h48.35a2.79,2.79,0,0,1,2.33,1.11A2.67,2.67,0,0,1,670,562Z"/><rect class="cls-1" x="19.99" y="22.33" width="370.26" height="218.19" rx="53.06"/><line class="cls-8" x1="115.24" y1="527.18" x2="47.29" y2="527.18"/><line class="cls-8" x1="44.32" y1="533.2" x2="44.32" y2="148.26"/><line class="cls-9" x1="47.8" y1="125.33" x2="182.68" y2="125.33"/><line class="cls-8" x1="47.29" y1="100.24" x2="159.56" y2="100.24"/><g class="cls-10"><path d="M221,66.67a40,40,0,0,1,18,7.87,44.49,44.49,0,0,1,12.63,15.39,42.63,42.63,0,0,1,4.67,19.49,41.91,41.91,0,0,1-13,30.94A42.92,42.92,0,0,1,212,153.18H84.67a48.35,48.35,0,0,1-35.29-14.36,47.19,47.19,0,0,1-14.53-34.88,47.12,47.12,0,0,1,9.34-28.72A49.67,49.67,0,0,1,68.06,57.44V54.71q0-22.58,16.26-38.64A53.63,53.63,0,0,1,123.41,0a54.33,54.33,0,0,1,28,7.52A55.63,55.63,0,0,1,171.5,27.35a32.65,32.65,0,0,1,18.33-5.47,32.22,32.22,0,0,1,23.52,9.58A31.46,31.46,0,0,1,223,54.71,35.36,35.36,0,0,1,221,66.67Z"/></g><g class="cls-10"><path d="M282.23,102.85A31.35,31.35,0,0,1,296.37,109a35,35,0,0,1,9.92,12.09A33.44,33.44,0,0,1,310,136.43a33,33,0,0,1-10.19,24.32,33.72,33.72,0,0,1-24.6,10.07h-100a38,38,0,0,1-27.73-11.28,38.5,38.5,0,0,1-4.07-50,39,39,0,0,1,18.75-14V93.45a41.18,41.18,0,0,1,12.78-30.37,42.17,42.17,0,0,1,30.72-12.62,42.65,42.65,0,0,1,22,5.91A43.48,43.48,0,0,1,243.36,72a25.68,25.68,0,0,1,14.41-4.3,25.3,25.3,0,0,1,18.48,7.53,24.7,24.7,0,0,1,7.62,18.27A27.68,27.68,0,0,1,282.23,102.85Z"/></g><path class="cls-5" d="M212.66,66.67a40.13,40.13,0,0,1,18,7.87,44.58,44.58,0,0,1,12.62,15.39,42.51,42.51,0,0,1,4.67,19.49,41.91,41.91,0,0,1-13,30.94,42.92,42.92,0,0,1-31.31,12.82H76.36a48.35,48.35,0,0,1-35.29-14.36,47.19,47.19,0,0,1-14.53-34.88,47.18,47.18,0,0,1,9.34-28.72A49.72,49.72,0,0,1,59.75,57.44V54.71q0-22.58,16.26-38.64A53.63,53.63,0,0,1,115.1,0a54.33,54.33,0,0,1,28,7.52,55.55,55.55,0,0,1,20.07,19.83,32.65,32.65,0,0,1,18.33-5.47,32.26,32.26,0,0,1,23.53,9.58,31.48,31.48,0,0,1,9.68,23.25A35.36,35.36,0,0,1,212.66,66.67Z"/><path class="cls-6" d="M273.93,102.85A31.36,31.36,0,0,1,288.06,109,34.91,34.91,0,0,1,298,121.12a33.44,33.44,0,0,1,3.67,15.31,32.93,32.93,0,0,1-10.19,24.32,33.72,33.72,0,0,1-24.6,10.07h-100a38,38,0,0,1-27.72-11.28,38.49,38.49,0,0,1-4.08-50,39,39,0,0,1,18.76-14V93.45a41.17,41.17,0,0,1,12.77-30.37,42.17,42.17,0,0,1,30.72-12.62,42.71,42.71,0,0,1,22,5.91A43.52,43.52,0,0,1,235.05,72a25.68,25.68,0,0,1,14.41-4.3A25.32,25.32,0,0,1,268,75.18a24.73,24.73,0,0,1,7.61,18.27A27.92,27.92,0,0,1,273.93,102.85Z"/><line class="cls-8" x1="244.3" y1="181.12" x2="244.3" y2="232.55"/><line class="cls-8" x1="266.46" y1="222.75" x2="668.83" y2="222.75"/><g class="cls-10"><path d="M777.59,239.69l7.91,3.67c2.64,1.44,3.41,3.52,2.33,6.26q-2.08,5.61-9.77,14.24a5.24,5.24,0,0,1-7,1.08l-7-3.67a40.38,40.38,0,0,1-12.56,6.91v7.34a4.69,4.69,0,0,1-1.4,3.23,5.14,5.14,0,0,1-3.26,1.73,52,52,0,0,1-17.68,0,5.16,5.16,0,0,1-4.65-5v-7.34a39.84,39.84,0,0,1-12.8-6.91L705,264.94a5.22,5.22,0,0,1-7-1.08q-7.46-8.42-9.78-14.24c-1.08-2.74-.31-4.82,2.33-6.26l7.68-3.67a33.49,33.49,0,0,1,0-13.6l-7.68-3.67q-4.19-2.16-2.33-6.26,2.32-5.83,9.78-14.25c1.86-2.16,4.18-2.51,7-1.08l6.75,3.46a39.61,39.61,0,0,1,12.8-6.69v-7.34a4.78,4.78,0,0,1,1.28-3.35,5.12,5.12,0,0,1,3.37-1.62,52.47,52.47,0,0,1,17.68,0,3.13,3.13,0,0,1,1.75.54,11.81,11.81,0,0,1,1.51,1.19,4.12,4.12,0,0,1,1.05,1.51,4.65,4.65,0,0,1,.35,1.73v7.34a42.89,42.89,0,0,1,12.56,6.69l7-3.46q3.95-2.37,7,1.08,7.44,8.21,9.77,14.25c1.08,2.73.31,4.82-2.33,6.26l-7.91,3.67A33.14,33.14,0,0,1,777.59,239.69Zm-27.22,4.53a17.91,17.91,0,0,0,4.42-9.93,13.4,13.4,0,0,0-2.09-9,20.38,20.38,0,0,0-6.63-6.15,15.75,15.75,0,0,0-9.66-1.83,21.85,21.85,0,0,0-10.7,4.2,17.94,17.94,0,0,0-4.42,9.93,13.37,13.37,0,0,0,2.09,9,20.1,20.1,0,0,0,6.64,6.15,15.65,15.65,0,0,0,9.65,1.84A21.78,21.78,0,0,0,750.37,244.22Zm56.54-25-1.86,3a2.8,2.8,0,0,1-3.49,1.3,26.34,26.34,0,0,1-7.45-4.1,2.42,2.42,0,0,1-.69-3.46l1.86-3a21.09,21.09,0,0,1-3.73-5.83h-3.72q-2.57,0-2.79-2.37a17.39,17.39,0,0,1,0-8q.23-2.16,2.79-2.16h3.72a20.89,20.89,0,0,1,3.73-5.82l-1.86-3.24a2.16,2.16,0,0,1,.69-3.24,26.09,26.09,0,0,1,7.45-4.1,2.58,2.58,0,0,1,3.49,1.08l1.86,3.24a21.13,21.13,0,0,1,7.44,0l1.86-3.24a2.59,2.59,0,0,1,3.5-1.08,20.54,20.54,0,0,1,7.44,4.1,2.17,2.17,0,0,1,.7,3.24L826,188.75a21.09,21.09,0,0,1,3.72,5.82h3.72q2.57,0,2.79,2.16a17.39,17.39,0,0,1,0,8q-.22,2.37-2.79,2.37h-3.72a21.29,21.29,0,0,1-3.72,5.83l1.86,3a2.38,2.38,0,0,1-.7,3.46,26.28,26.28,0,0,1-7.44,4.1,2.81,2.81,0,0,1-3.5-1.3l-1.86-3A21.62,21.62,0,0,1,806.91,219.18Zm0,64.54-1.86,3a2.8,2.8,0,0,1-3.49,1.3,26.34,26.34,0,0,1-7.45-4.1,2.42,2.42,0,0,1-.69-3.46l1.86-3a21.09,21.09,0,0,1-3.73-5.83h-3.72q-2.57,0-2.79-2.37a17.39,17.39,0,0,1,0-8q.23-2.16,2.79-2.16h3.72a24.53,24.53,0,0,1,3.73-6l-1.86-3a2.42,2.42,0,0,1,.69-3.46,22.61,22.61,0,0,1,7.45-3.88,2.58,2.58,0,0,1,3.49,1.08l1.86,3.23a21.62,21.62,0,0,1,7.44,0l1.86-3.23a2.58,2.58,0,0,1,3.5-1.08,22.56,22.56,0,0,1,7.44,3.88,2.43,2.43,0,0,1,.7,3.46l-1.86,3a24.79,24.79,0,0,1,3.72,6h3.72q2.57,0,2.79,2.16a17.39,17.39,0,0,1,0,8q-.22,2.37-2.79,2.37h-3.72a21.29,21.29,0,0,1-3.72,5.83l1.86,3a2.43,2.43,0,0,1-.7,3.46,26.28,26.28,0,0,1-7.44,4.1,2.81,2.81,0,0,1-3.5-1.3l-1.86-3A21.62,21.62,0,0,1,806.91,283.72Zm-2.33-77.28a9.51,9.51,0,0,0,8.61,1.73q4.42-1.29,5.47-5.07c.7-2.52,0-5.21-2-8.1a9.52,9.52,0,0,0-8.61-1.72q-4.43,1.29-5.46,5.07T804.58,206.44Zm0,64.54a9.54,9.54,0,0,0,8.61,1.73q4.42-1.29,5.47-5.07t-2-8.1a9.52,9.52,0,0,0-8.61-1.72q-4.43,1.29-5.46,5.07T804.58,271Z"/><path d="M750.8,200.56l8.49,4.2q4.25,2.46,2.49,7.15-2.24,6.42-10.48,16.28-3.24,3.69-7.48,1.23l-7.49-4.19a42.66,42.66,0,0,1-13.47,7.89v8.38a5.54,5.54,0,0,1-1.5,3.7,5.47,5.47,0,0,1-3.49,2,53,53,0,0,1-19,0,5.18,5.18,0,0,1-3.62-2,5.8,5.8,0,0,1-1.37-3.7v-8.38a42.06,42.06,0,0,1-13.73-7.89L673,229.42q-4.25,2.46-7.49-1.23-8-9.63-10.48-16.28c-1.16-3.12-.34-5.51,2.5-7.15l8.23-4.2a40.57,40.57,0,0,1,0-15.53l-8.23-4.2q-4.5-2.46-2.5-7.15,2.49-6.66,10.48-16.27,3-3.71,7.49-1.24l7.23,4a41.93,41.93,0,0,1,13.73-7.65v-8.38a5.65,5.65,0,0,1,1.37-3.82,5.31,5.31,0,0,1,3.62-1.85,52.53,52.53,0,0,1,19,0,3.19,3.19,0,0,1,1.87.61,14.22,14.22,0,0,1,1.62,1.36,4.62,4.62,0,0,1,1.12,1.73,5.47,5.47,0,0,1,.38,2v8.38a45.47,45.47,0,0,1,13.47,7.65l7.49-4q4.23-2.7,7.48,1.24,8,9.38,10.48,16.27,1.76,4.69-2.49,7.15L750.8,185A40.57,40.57,0,0,1,750.8,200.56Zm-29.19,5.18a21.08,21.08,0,0,0,4.74-11.34,16.07,16.07,0,0,0-2.24-10.24,22.48,22.48,0,0,0-7.11-7,16,16,0,0,0-10.36-2.1,22.55,22.55,0,0,0-11.48,4.81,21.14,21.14,0,0,0-4.74,11.34,16,16,0,0,0,2.25,10.24,22.21,22.21,0,0,0,7.11,7,15.91,15.91,0,0,0,10.35,2.09A22.52,22.52,0,0,0,721.61,205.74Zm60.63-28.6-2,3.45a2.93,2.93,0,0,1-3.74,1.48,27.31,27.31,0,0,1-8-4.69,2.86,2.86,0,0,1-.75-3.94l2-3.46a24.16,24.16,0,0,1-4-6.65h-4a2.67,2.67,0,0,1-3-2.72,20.94,20.94,0,0,1,0-9.12c.16-1.64,1.16-2.47,3-2.47h4a24.36,24.36,0,0,1,4-6.66l-2-3.7a2.56,2.56,0,0,1,.75-3.7,27.51,27.51,0,0,1,8-4.68,2.69,2.69,0,0,1,3.74,1.23l2,3.7a21.9,21.9,0,0,1,8,0l2-3.7a2.69,2.69,0,0,1,3.75-1.23,21.76,21.76,0,0,1,8,4.68,2.56,2.56,0,0,1,.75,3.7l-2,3.7a24.87,24.87,0,0,1,4,6.66h4c1.83,0,2.83.83,3,2.47a20.94,20.94,0,0,1,0,9.12,2.67,2.67,0,0,1-3,2.72h-4a24.66,24.66,0,0,1-4,6.65l2,3.46c.83,1.64.58,3-.75,3.94a27.39,27.39,0,0,1-8,4.69,2.93,2.93,0,0,1-3.75-1.48l-2-3.45A21.9,21.9,0,0,1,782.24,177.14Zm0,73.74-2,3.45a2.93,2.93,0,0,1-3.74,1.48,27.54,27.54,0,0,1-8-4.69,2.86,2.86,0,0,1-.75-3.94l2-3.46a24.07,24.07,0,0,1-4-6.66h-4a2.67,2.67,0,0,1-3-2.71,20.94,20.94,0,0,1,0-9.12c.16-1.65,1.16-2.47,3-2.47h4a28.29,28.29,0,0,1,4-6.91l-2-3.45a2.86,2.86,0,0,1,.75-3.94,23.44,23.44,0,0,1,8-4.44,2.69,2.69,0,0,1,3.74,1.23l2,3.7a21.9,21.9,0,0,1,8,0l2-3.7A2.69,2.69,0,0,1,796,204a23.49,23.49,0,0,1,8,4.44,2.86,2.86,0,0,1,.75,3.94l-2,3.45a29,29,0,0,1,4,6.91h4c1.83,0,2.83.82,3,2.47a20.94,20.94,0,0,1,0,9.12,2.67,2.67,0,0,1-3,2.71h-4a24.56,24.56,0,0,1-4,6.66l2,3.46a2.86,2.86,0,0,1-.75,3.94,27.62,27.62,0,0,1-8,4.69,2.93,2.93,0,0,1-3.75-1.48l-2-3.45A21.9,21.9,0,0,1,782.24,250.88Zm-2.49-88.29q4.49,3.45,9.23,2a8,8,0,0,0,5.86-5.8q1.13-4.31-2.12-9.25-4.49-3.45-9.23-2a8,8,0,0,0-5.86,5.8Q776.51,157.66,779.75,162.59Zm0,73.73c3,2.31,6.07,3,9.23,2a8,8,0,0,0,5.86-5.8q1.13-4.31-2.12-9.25-4.49-3.45-9.23-2a8,8,0,0,0-5.86,5.8C776.88,230,777.58,233,779.75,236.32Z"/></g><path class="cls-6" d="M773.45,239.69l7.91,3.67c2.64,1.44,3.41,3.52,2.33,6.26q-2.1,5.61-9.77,14.24a5.24,5.24,0,0,1-7,1.08l-7-3.67a40.43,40.43,0,0,1-12.57,6.91v7.34a4.71,4.71,0,0,1-1.39,3.24,5.17,5.17,0,0,1-3.26,1.72,52,52,0,0,1-17.68,0,5.14,5.14,0,0,1-4.65-5v-7.34a39.84,39.84,0,0,1-12.8-6.91l-6.75,3.67a5.24,5.24,0,0,1-7-1.08q-7.44-8.42-9.77-14.24c-1.08-2.74-.31-4.82,2.33-6.26l7.68-3.67a33.14,33.14,0,0,1,0-13.6l-7.68-3.67q-4.2-2.16-2.33-6.26,2.32-5.83,9.77-14.25c1.86-2.16,4.19-2.51,7-1.08l6.75,3.46a39.7,39.7,0,0,1,12.8-6.69v-7.34a4.78,4.78,0,0,1,1.28-3.35,5.12,5.12,0,0,1,3.37-1.62,52.47,52.47,0,0,1,17.68,0,3.13,3.13,0,0,1,1.75.54A12.55,12.55,0,0,1,746,187a4.22,4.22,0,0,1,1,1.51,4.46,4.46,0,0,1,.35,1.73v7.34A43,43,0,0,1,760,204.29l7-3.46q3.94-2.37,7,1.08,7.44,8.21,9.77,14.25c1.08,2.73.31,4.82-2.33,6.26l-7.91,3.67A33.49,33.49,0,0,1,773.45,239.69Zm-27.22,4.53a17.91,17.91,0,0,0,4.42-9.93,13.4,13.4,0,0,0-2.09-9,20.38,20.38,0,0,0-6.63-6.15,15.76,15.76,0,0,0-9.66-1.83,21.78,21.78,0,0,0-10.7,4.21,17.89,17.89,0,0,0-4.42,9.92,13.32,13.32,0,0,0,2.09,9,20.16,20.16,0,0,0,6.63,6.15,15.68,15.68,0,0,0,9.66,1.84A21.78,21.78,0,0,0,746.23,244.22Zm56.54-25-1.86,3a2.8,2.8,0,0,1-3.49,1.3,26.2,26.2,0,0,1-7.45-4.1,2.42,2.42,0,0,1-.7-3.46l1.86-3a21.29,21.29,0,0,1-3.72-5.83h-3.72q-2.57,0-2.79-2.37a17.39,17.39,0,0,1,0-8c.15-1.43,1.08-2.16,2.79-2.16h3.72a21.23,21.23,0,0,1,3.72-5.82l-1.86-3.24a2.16,2.16,0,0,1,.7-3.24,26,26,0,0,1,7.45-4.1,2.59,2.59,0,0,1,3.49,1.08l1.86,3.24a21.13,21.13,0,0,1,7.44,0l1.86-3.24a2.58,2.58,0,0,1,3.49-1.08,20.67,20.67,0,0,1,7.45,4.1,2.17,2.17,0,0,1,.7,3.24l-1.87,3.24a21.27,21.27,0,0,1,3.73,5.82h3.72c1.7,0,2.64.73,2.79,2.16a17.39,17.39,0,0,1,0,8c-.15,1.58-1.09,2.37-2.79,2.37h-3.72a21.32,21.32,0,0,1-3.73,5.83l1.87,3a2.38,2.38,0,0,1-.7,3.46,26.48,26.48,0,0,1-7.45,4.1,2.8,2.8,0,0,1-3.49-1.3l-1.86-3A21.62,21.62,0,0,1,802.77,219.18Zm0,64.54-1.86,3a2.8,2.8,0,0,1-3.49,1.3,26.2,26.2,0,0,1-7.45-4.1,2.42,2.42,0,0,1-.7-3.46l1.86-3a21.29,21.29,0,0,1-3.72-5.83h-3.72q-2.57,0-2.79-2.37a17.39,17.39,0,0,1,0-8q.23-2.16,2.79-2.16h3.72a24.79,24.79,0,0,1,3.72-6l-1.86-3a2.42,2.42,0,0,1,.7-3.46,22.51,22.51,0,0,1,7.45-3.88,2.59,2.59,0,0,1,3.49,1.08l1.86,3.24a21.13,21.13,0,0,1,7.44,0l1.86-3.24a2.58,2.58,0,0,1,3.49-1.08,22.71,22.71,0,0,1,7.45,3.88,2.43,2.43,0,0,1,.7,3.46l-1.87,3a24.83,24.83,0,0,1,3.73,6h3.72c1.7,0,2.64.72,2.79,2.16a17.39,17.39,0,0,1,0,8c-.15,1.58-1.09,2.37-2.79,2.37h-3.72a21.32,21.32,0,0,1-3.73,5.83l1.87,3a2.43,2.43,0,0,1-.7,3.46,26.48,26.48,0,0,1-7.45,4.1,2.8,2.8,0,0,1-3.49-1.3l-1.86-3A21.62,21.62,0,0,1,802.77,283.72Zm-2.33-77.27a9.52,9.52,0,0,0,8.61,1.72c2.94-.86,4.77-2.55,5.47-5.07s0-5.21-2-8.09a9.53,9.53,0,0,0-8.61-1.73q-4.42,1.29-5.47,5.07T800.44,206.45Zm0,64.53a9.5,9.5,0,0,0,8.61,1.73c2.94-.86,4.77-2.55,5.47-5.07s0-5.22-2-8.1a9.52,9.52,0,0,0-8.61-1.72q-4.42,1.29-5.47,5.07T800.44,271Z"/><path class="cls-5" d="M746.66,200.57l8.49,4.19q4.23,2.46,2.49,7.15-2.25,6.42-10.48,16.28-3.24,3.69-7.48,1.23l-7.49-4.19a42.66,42.66,0,0,1-13.47,7.89v8.38a5.54,5.54,0,0,1-1.5,3.7,5.47,5.47,0,0,1-3.49,2,53,53,0,0,1-19,0,5.22,5.22,0,0,1-3.62-2,5.85,5.85,0,0,1-1.37-3.7v-8.38a42,42,0,0,1-13.72-7.89l-7.24,4.19q-4.24,2.46-7.48-1.23-8-9.63-10.48-16.28c-1.16-3.12-.34-5.51,2.49-7.15l8.24-4.19a40.62,40.62,0,0,1,0-15.54l-8.24-4.19q-4.49-2.47-2.49-7.16,2.49-6.66,10.48-16.27,3-3.71,7.48-1.24l7.24,4a42,42,0,0,1,13.72-7.65v-8.38a5.7,5.7,0,0,1,1.37-3.82,5.35,5.35,0,0,1,3.62-1.85,52.58,52.58,0,0,1,19,0,3.28,3.28,0,0,1,1.87.61,14.22,14.22,0,0,1,1.62,1.36,4.74,4.74,0,0,1,1.12,1.73,5.51,5.51,0,0,1,.38,2v8.38a45.47,45.47,0,0,1,13.47,7.65l7.49-4q4.23-2.7,7.48,1.24,8,9.38,10.48,16.27,1.74,4.69-2.49,7.16L746.66,185A40.62,40.62,0,0,1,746.66,200.57Zm-29.19,5.17a21.16,21.16,0,0,0,4.74-11.34A16,16,0,0,0,720,184.17a22.21,22.21,0,0,0-7.11-7A16,16,0,0,0,702.5,175,22.64,22.64,0,0,0,691,179.85a21.14,21.14,0,0,0-4.74,11.34,16,16,0,0,0,2.25,10.24,22,22,0,0,0,7.11,7A15.9,15.9,0,0,0,706,210.55,22.47,22.47,0,0,0,717.47,205.74Zm60.63-28.6-2,3.45a2.94,2.94,0,0,1-3.75,1.48,27.39,27.39,0,0,1-8-4.69,2.85,2.85,0,0,1-.75-3.94l2-3.46a24.44,24.44,0,0,1-4-6.65h-4a2.67,2.67,0,0,1-3-2.72,20.94,20.94,0,0,1,0-9.12c.16-1.64,1.16-2.47,3-2.47h4a24.64,24.64,0,0,1,4-6.66l-2-3.7a2.55,2.55,0,0,1,.75-3.7,27.59,27.59,0,0,1,8-4.68,2.7,2.7,0,0,1,3.75,1.23l2,3.7a21.9,21.9,0,0,1,8,0l2-3.7a2.69,2.69,0,0,1,3.75-1.23,21.9,21.9,0,0,1,8,4.68,2.56,2.56,0,0,1,.75,3.7l-2,3.7a24.61,24.61,0,0,1,4,6.66h4c1.83,0,2.82.83,3,2.47a21.25,21.25,0,0,1,0,9.12,2.68,2.68,0,0,1-3,2.72h-4a24.41,24.41,0,0,1-4,6.65l2,3.46c.83,1.64.58,3-.75,3.94a27.39,27.39,0,0,1-8,4.69,2.93,2.93,0,0,1-3.75-1.48l-2-3.45A21.9,21.9,0,0,1,778.1,177.14Zm0,73.74-2,3.45a2.94,2.94,0,0,1-3.75,1.48,27.39,27.39,0,0,1-8-4.69,2.85,2.85,0,0,1-.75-3.94l2-3.46a24.34,24.34,0,0,1-4-6.66h-4a2.67,2.67,0,0,1-3-2.71,20.94,20.94,0,0,1,0-9.12c.16-1.64,1.16-2.47,3-2.47h4a28.41,28.41,0,0,1,4-6.9l-2-3.46a2.85,2.85,0,0,1,.75-3.94,23.49,23.49,0,0,1,8-4.44,2.7,2.7,0,0,1,3.75,1.23l2,3.7a21.9,21.9,0,0,1,8,0l2-3.7a2.69,2.69,0,0,1,3.75-1.23,23.49,23.49,0,0,1,8,4.44,2.86,2.86,0,0,1,.75,3.94l-2,3.46a28.37,28.37,0,0,1,4,6.9h4c1.83,0,2.82.83,3,2.47a21.25,21.25,0,0,1,0,9.12,2.67,2.67,0,0,1-3,2.71h-4a24.31,24.31,0,0,1-4,6.66l2,3.46a2.86,2.86,0,0,1-.75,3.94,27.39,27.39,0,0,1-8,4.69,2.93,2.93,0,0,1-3.75-1.48l-2-3.45A21.9,21.9,0,0,1,778.1,250.88Zm-2.49-88.29q4.49,3.45,9.23,2a8,8,0,0,0,5.86-5.8q1.13-4.31-2.12-9.24c-3-2.31-6.07-3-9.23-2a8,8,0,0,0-5.86,5.8Q772.37,157.66,775.61,162.59Zm0,73.74q4.49,3.45,9.23,2a8,8,0,0,0,5.86-5.8q1.13-4.31-2.12-9.25-4.49-3.45-9.23-2a8,8,0,0,0-5.86,5.8Q772.37,231.4,775.61,236.33Z"/></g></g></svg>