<svg xmlns="http://www.w3.org/2000/svg" viewBox="0 0 831.53 620.28"><defs><style>.cls-1{fill:#66b9bf;}.cls-2{fill:#f2f2f2;}.cls-3{opacity:0.2;}.cls-4{fill:#e37222;}.cls-5{fill:#07889b;}</style></defs><title>Recurso 6</title><g id="Capa_2" data-name="Capa 2"><g id="Capa_1-2" data-name="Capa 1"><rect class="cls-1" x="497.87" y="415.47" width="333.66" height="204.81" rx="53.06"/><rect class="cls-1" x="45.27" y="21.66" width="261.22" height="188.07" rx="53.06"/><path class="cls-2" d="M767.48,512.4q12.72,4.54,20.6,10.76T796,536.34q0,7-8.33,13.63t-22,10.9l-2.72.91a34.16,34.16,0,0,1,.91,4.24,66.31,66.31,0,0,1,1.51,16.06,37,37,0,0,1-2.57,12.72q-2.28,5.46-6.21,7.58-6.08,3.33-15,.3t-18.93-11.21l-3.94-3.94c-1,1-2.12,2-3.33,3q-10,8.79-19.54,12t-15.61-.15q-6.06-3.35-7.87-12.73t.6-22.11q.62-2.73,1.21-5.45a37.32,37.32,0,0,1-4.24-1.22q-13-4.54-21-11.21t-8-13.32q0-6.66,7.57-13t20.3-10.6l5.45-1.82a37.78,37.78,0,0,1-.9-5.15q-2.73-12.72-.91-22.27t7.87-13.18q6.06-3.33,15.76,0T716,483l2.42,2.42q2.13-2.12,3.94-3.63,10-8.79,18.94-11.82t15,.3q6.36,3.34,8.18,13.48t-1.21,23.79c-.2,1.41-.41,2.52-.61,3.33A47.44,47.44,0,0,1,767.48,512.4ZM676,556a151.38,151.38,0,0,1,7.27-19.69A159.19,159.19,0,0,1,676,517a48.84,48.84,0,0,0-5.15,1.81q-10.61,3.65-17,8.49t-6.36,9.09a12.09,12.09,0,0,0,5.45,9.08q7.28,5.46,19.08,9.39C673.46,555.22,674.78,555.62,676,556Zm35.14,29.68a35.37,35.37,0,0,0,3-2.72,139.55,139.55,0,0,1-13-16.36,119.81,119.81,0,0,1-20.6-3c-.41,1.62-.81,3.33-1.21,5.15q-1.83,10.9-.76,18.33c.7,4.95,2.37,8.12,5,9.54a13,13,0,0,0,10.6-.3A53.33,53.33,0,0,0,711.13,585.71ZM683.26,476.05q-3.63,2.13-4.69,9.85t1.06,18.63c.4,2,.7,3.53.91,4.54a184.3,184.3,0,0,1,20.29-3,167.41,167.41,0,0,1,13-16.05l-2.12-2.13Q703,480,695.08,476.81C689.82,474.69,685.89,474.44,683.26,476.05Zm-.91,39.38q2.11,6.68,4.85,13.33,1.81-3.63,4.24-7.87,2.12-3.64,4.55-7.88A125.79,125.79,0,0,0,682.35,515.43Zm9.09,36.66q-1.82-3.65-4.24-8.18a126.89,126.89,0,0,0-4.85,13.63,100,100,0,0,0,13.94,2.12Q694.16,556.65,691.44,552.09Zm-.91-15.75q3.33,6.66,6.67,12.42,3.33,6.06,7.27,11.81,7,.3,13.93.3,7.27,0,13.94-.3a136.07,136.07,0,0,0,7.27-12.12q3.63-6,6.67-12.11-3.35-6.66-6.67-12.43t-7.27-11.51q-7-.6-13.94-.6t-13.93.6a109.07,109.07,0,0,0-7.27,11.82Q693.57,530.58,690.53,536.34Zm37.72,9.84a13.89,13.89,0,1,1,4.09-9.84A13.42,13.42,0,0,1,728.25,546.18Zm-9.85-51.65a117.72,117.72,0,0,0-9.08,10.91q9.09-.3,18.17,0A119.42,119.42,0,0,0,718.4,494.53Zm.31,83.61a137.49,137.49,0,0,0,8.78-10.9q-4.25.3-9.09.3-4.53,0-9.08-.3A100.38,100.38,0,0,0,718.71,578.14Zm7.87-91.49c-1.21,1-2.42,2.12-3.63,3.34A168.86,168.86,0,0,1,736,506a148,148,0,0,1,20.3,3.33c.2-.8.4-1.81.61-3q2.42-11.8,1.36-20t-5-10.6q-3.93-2.12-11.21.91A60.52,60.52,0,0,0,726.58,486.65Zm31.81,100.58a60.11,60.11,0,0,0-.91-20,23.88,23.88,0,0,0-.9-3.64,170.39,170.39,0,0,1-20.61,3A160.8,160.8,0,0,1,723.25,583a22.94,22.94,0,0,0,3.94,3.33,50.74,50.74,0,0,0,10.45,7.73,30.08,30.08,0,0,0,9.09,3.48,11.41,11.41,0,0,0,6.51-.61A13.6,13.6,0,0,0,758.39,587.23Zm-13-35.45q-2.73,4.86-4.85,7.88,7.28-.9,14.24-2.42a130,130,0,0,0-4.85-13.33Q747.48,548.46,745.37,551.78Zm4.24-23a88.87,88.87,0,0,0,4.84-13.33A125.16,125.16,0,0,0,740.82,513q2.11,3.94,4.55,7.88Q747.19,523.92,749.61,528.76Zm14.24,26A74.67,74.67,0,0,0,777,549.06a38.9,38.9,0,0,0,9.09-6.67q3.18-3.33,3.18-6.36,0-3.93-6.66-8.93a62.61,62.61,0,0,0-17.27-8.64c-1.62-.4-3.13-.8-4.54-1.21a144.88,144.88,0,0,1-7.27,19.09,162.46,162.46,0,0,1,7.57,19.08A9.56,9.56,0,0,0,763.85,554.81Z"/><rect class="cls-3" x="144.75" y="132.25" width="563.27" height="404.08" rx="20"/><rect class="cls-1" x="481.04" width="194.84" height="194.84" rx="53.06"/><rect class="cls-1" y="425.68" width="224.61" height="184.82" rx="53.06"/><path class="cls-2" d="M149.4,55.42,171.18,77.2l-57.24,57.24L93.31,138.1a4.16,4.16,0,0,1-4.82-4.81l3.67-20.63Zm-39.9,31L90.23,67.18a6.27,6.27,0,0,1,0-8.67l17.34-17.35a6.31,6.31,0,0,1,8.68,0l6.55,6.55-12,11.95c-.77.65-.77,1.35,0,2.12L113,63.9a1.64,1.64,0,0,0,2.12,0L127,52l8.48,8.48Zm75.94,23.9a6.3,6.3,0,0,1,0,8.67l-17.35,17.35a6.3,6.3,0,0,1-8.67,0L140.15,116.9l26-25.82,8.48,8.48-12,12c-.77.64-.77,1.35,0,2.12l2.12,2.12c.77.77,1.47.77,2.12,0l11.95-12Zm-1-46.45-8.87,8.87L153.83,51l8.87-8.87a9.32,9.32,0,0,1,13.1,0l8.68,8.68a9.32,9.32,0,0,1,0,13.1Z"/><rect class="cls-2" x="138.25" y="125.77" width="563.27" height="404.08" rx="20"/><rect class="cls-4" x="138.25" y="125.77" width="563.27" height="67.35" rx="20"/><rect class="cls-2" x="577.23" y="146.94" width="25" height="25" rx="12.5"/><rect class="cls-2" x="613.13" y="146.94" width="25" height="25" rx="12.5"/><rect class="cls-2" x="650.32" y="146.94" width="25" height="25" rx="12.5"/><rect class="cls-5" x="524.43" y="225.03" width="155.6" height="279.3" rx="20"/><rect class="cls-2" x="540.52" y="241.76" width="124.18" height="92.53" rx="20"/><rect class="cls-2" x="540.5" y="435.35" width="124.18" height="40" rx="20"/><rect class="cls-2" x="540.14" y="401.85" width="81.61" height="20" rx="0.75"/><rect class="cls-2" x="539.95" y="345.77" width="95.36" height="20" rx="0.75"/><rect class="cls-2" x="539.95" y="373.81" width="121.73" height="20" rx="0.75"/><rect class="cls-5" x="343.98" y="225.03" width="155.6" height="82.48" rx="20"/><rect class="cls-5" x="163.53" y="227.62" width="155.6" height="276.3" rx="20"/><rect class="cls-5" x="343.98" y="415.47" width="155.6" height="82.48" rx="20"/><rect class="cls-5" x="342.08" y="320.25" width="155.6" height="82.48" rx="20"/><path class="cls-5" d="M578.46,291.88a23,23,0,0,0-8.2,7.38,24.34,24.34,0,0,0-4.1,10.5H555.34a5.33,5.33,0,0,1-5.25-5.25v-5.25a10.64,10.64,0,0,1,10.5-10.49h10.49A10.12,10.12,0,0,1,578.46,291.88Zm-5.25-11.47a10.29,10.29,0,1,1,3.12-7.38A10.12,10.12,0,0,1,573.21,280.41Zm42,13.61a18.76,18.76,0,0,1,18.86,18.85v4.76a7.85,7.85,0,0,1-7.87,7.87H579a7.85,7.85,0,0,1-7.87-7.87v-4.76A18.75,18.75,0,0,1,589.94,294h1.47a25,25,0,0,0,22.3,0Zm.33-10.66a18.22,18.22,0,1,1,5.41-13A17.72,17.72,0,0,1,615.52,283.36Zm29,5.41A10.64,10.64,0,0,1,655,299.26v5.25a5.33,5.33,0,0,1-5.25,5.25H639a23.76,23.76,0,0,0-2.14-7.22,23,23,0,0,0-4.26-6.15,25.32,25.32,0,0,0-5.9-4.51,10.09,10.09,0,0,1,7.38-3.11Zm2.13-8.36a10.29,10.29,0,1,1,3.12-7.38A10.09,10.09,0,0,1,646.67,280.41Z"/><path class="cls-2" d="M421.9,269.19A15.88,15.88,0,0,1,437.67,285v4.94a5.62,5.62,0,0,1-5.65,5.65H390.58a5.63,5.63,0,0,1-5.65-5.65V285a15.88,15.88,0,0,1,15.78-15.78h2a20.59,20.59,0,0,0,17.19,0ZM422,261a15.08,15.08,0,1,1,4.41-10.66A14.55,14.55,0,0,1,422,261Zm36.44-1.24a1.81,1.81,0,0,1,1.88,1.89v3.76a1.87,1.87,0,0,1-.53,1.36,1.85,1.85,0,0,1-1.35.53h-7.54v7.53a1.87,1.87,0,0,1-.53,1.36,1.83,1.83,0,0,1-1.35.53h-3.77a1.81,1.81,0,0,1-1.88-1.89v-7.53h-7.54a1.81,1.81,0,0,1-1.88-1.89v-3.76a1.81,1.81,0,0,1,1.88-1.89h7.54v-7.53a1.81,1.81,0,0,1,1.88-1.89H449a1.83,1.83,0,0,1,1.35.53,1.87,1.87,0,0,1,.53,1.36v7.53Z"/><path class="cls-2" d="M451.16,333.69a5.36,5.36,0,0,1,5.37,5.37v35.8a5.36,5.36,0,0,1-5.37,5.37H424.31v3.58H444a1.71,1.71,0,0,1,1.79,1.79v3.58A1.71,1.71,0,0,1,444,391H397.46a1.71,1.71,0,0,1-1.79-1.79V385.6a1.71,1.71,0,0,1,1.79-1.79h19.69v-3.58H390.3a5.36,5.36,0,0,1-5.37-5.37v-35.8a5.36,5.36,0,0,1,5.37-5.37Zm-1.79,39.38V340.85H392.09v32.22Z"/><path class="cls-2" d="M442.66,450.09a13.13,13.13,0,0,1,0,26.26h-1.88a11.22,11.22,0,0,1-11.26,11.26H407a11.23,11.23,0,0,1-11.26-11.26V453.84a3.81,3.81,0,0,1,3.76-3.75Zm-32-5.4a9.69,9.69,0,0,0-2.58-5.16,16.35,16.35,0,0,1-4.81-9.85,1.69,1.69,0,0,1,.47-1.46,1.84,1.84,0,0,1,1.4-.65h2a1.7,1.7,0,0,1,1.87,1.64,10.49,10.49,0,0,0,3.05,6.22,15,15,0,0,1,4.34,8.79,1.73,1.73,0,0,1-.47,1.47,1.83,1.83,0,0,1-1.41.64h-2A1.7,1.7,0,0,1,410.65,444.69Zm13.13,0a9.62,9.62,0,0,0-2.58-5.16,16.35,16.35,0,0,1-4.81-9.85,2.38,2.38,0,0,1,.23-1.05,1.92,1.92,0,0,1,.71-.76,1.71,1.71,0,0,1,.94-.3h2a1.72,1.72,0,0,1,1.88,1.64,10.37,10.37,0,0,0,3.05,6.22,15,15,0,0,1,4.33,8.79,1.73,1.73,0,0,1-.47,1.47,1.83,1.83,0,0,1-1.4.64h-2A1.7,1.7,0,0,1,423.78,444.69Zm18.88,24.16a5.63,5.63,0,1,0,0-11.26h-1.88v11.26Z"/><rect class="cls-2" x="178.75" y="247.41" width="127.74" height="73.95" rx="22.12"/><path class="cls-5" d="M222.79,261a28,28,0,0,1,43.46,34.83,27.71,27.71,0,0,1-11.38,10.12.62.62,0,0,1-.75,0,.63.63,0,0,1-.25-.75c.33-2.25.54-4.2.63-5.87a22.41,22.41,0,0,0,7.38-7.88,21.9,21.9,0,0,0,1.62-17.57,21.61,21.61,0,0,0-3.19-6.07,23.24,23.24,0,0,0-4.75-4.75,21.95,21.95,0,0,0-28.51,2.19,21,21,0,0,0-6.44,15.44,22.07,22.07,0,0,0,9.75,18.39.72.72,0,0,1,.38.62,52.54,52.54,0,0,0,.62,5.5.63.63,0,0,1-.25.75.62.62,0,0,1-.75,0A28,28,0,0,1,222.79,261Zm11.45,27.95c.41.41.37.79-.13,1.12a7.89,7.89,0,0,0-2.62,3.13c-.34.67-.71.75-1.13.25a18,18,0,0,1,12.76-31.14,17.8,17.8,0,0,1,12.25,5.31,17.91,17.91,0,0,1-.5,25.83c-.42.5-.79.42-1.12-.25a8,8,0,0,0-2.63-3.13c-.5-.33-.54-.71-.12-1.12a11.82,11.82,0,0,0,3.62-8.63,11.61,11.61,0,0,0-3.69-8.69,11.4,11.4,0,0,0-8.81-3.32,12.26,12.26,0,0,0-11.51,11.51A11.41,11.41,0,0,0,234.24,288.92Zm2.69-13.82a8.14,8.14,0,1,1-2.32,5.69A7.73,7.73,0,0,1,236.93,275.1ZM248,313.93q-.75,2.88-5.37,2.88t-5.38-2.88a80.24,80.24,0,0,1-1.75-8.44,53.75,53.75,0,0,1-.88-8.19q0-5.51,8-5.51t8,5.51a53.75,53.75,0,0,1-.88,8.19A80.24,80.24,0,0,1,248,313.93Z"/><rect class="cls-2" x="178.75" y="355.77" width="127.74" height="134.01" rx="22.12"/><path class="cls-5" d="M240.12,431a5.73,5.73,0,0,1-2.44-.69,19.56,19.56,0,0,1-2.33-1.25c-.58-.38-1.44-1-2.57-1.89A14.36,14.36,0,0,0,231,425.9q-15.33-11.17-21.85-16.2a2.86,2.86,0,0,1-1.13-2.38v-2.39a6,6,0,0,1,6-6h52.23a6,6,0,0,1,6,6v2.39a2.84,2.84,0,0,1-1.14,2.38q-6.15,4.77-21.84,16.2a13.56,13.56,0,0,0-1.82,1.31q-1.69,1.32-2.58,1.89a19.32,19.32,0,0,1-2.32,1.25A5.77,5.77,0,0,1,240.12,431ZM271,414.85a.63.63,0,0,1,.82-.13.83.83,0,0,1,.44.76v25.61a6,6,0,0,1-6,6H214a6,6,0,0,1-6-6V415.48a.68.68,0,0,1,.44-.69.8.8,0,0,1,.82.06Q213.38,418,228.57,429c.17.16.73.62,1.7,1.38s1.73,1.32,2.32,1.69,1.34.84,2.26,1.38a11.73,11.73,0,0,0,2.7,1.2,9.34,9.34,0,0,0,2.57.37,8.32,8.32,0,0,0,2.26-.31,16.3,16.3,0,0,0,2.14-.75,14.75,14.75,0,0,0,2.13-1.2c.76-.5,1.38-.94,1.88-1.32l1.76-1.31a15.65,15.65,0,0,0,1.38-1.13Q266.49,418.36,271,414.85Z"/><path class="cls-5" d="M611.39,446.72a12.46,12.46,0,1,1-8.8-3.64A12,12,0,0,1,611.39,446.72Zm-10.26,15.36,9.23-9.22a.65.65,0,0,0,0-1.1l-1.1-1.16a.76.76,0,0,0-1.16,0l-7.52,7.52-3.51-3.51a.75.75,0,0,0-1.15,0l-1.1,1.16a.65.65,0,0,0,0,1.1l5.21,5.21A.65.65,0,0,0,601.13,462.08Z"/><path class="cls-2" d="M565.21,76.15l13.47,11.32c.1.72.16,1.18.16,1.38q0,8.58-5.36,13.47t-14.24,4.9q-9.79,0-14.69-6.74t-4.9-17a12.31,12.31,0,0,0,1.23,1c.61.46,1.24.92,1.91,1.38s1.35.91,2.07,1.37,1.35.84,1.91,1.15a3,3,0,0,0,1.3.46,2.28,2.28,0,0,0,2.3-1.53Q554.35,76.91,565.21,76.15Zm44.54-47.3A8.53,8.53,0,0,1,615.57,31,7,7,0,0,1,618,36.5a15.92,15.92,0,0,1-2.14,7q-13,24.35-19.14,31.76t-13.16,7.43a14.35,14.35,0,0,1-3.37-.46l-9.79-8.11a13.79,13.79,0,0,1-1.38-6c0-.92,0-1.74.08-2.45a6.12,6.12,0,0,1,.69-2.3A18.74,18.74,0,0,1,571,61.3a29.85,29.85,0,0,1,2.14-2.68,36.72,36.72,0,0,1,3.06-3.14l4.52-4c2-1.79,3.93-3.47,5.82-5.06s4.43-3.8,7.65-6.65,6.35-5.67,9.41-8.42A9,9,0,0,1,609.75,28.85Z"/><path class="cls-2" d="M70.21,482.56a55.18,55.18,0,0,1,57.19,23.37,53.66,53.66,0,0,1,9.16,30.49,14,14,0,0,1-14,14H105.32a13.88,13.88,0,0,0-12.5,6.89,13.7,13.7,0,0,0-.64,14.22,13.51,13.51,0,0,1,.43,12.39,11.92,11.92,0,0,1-9.48,7.43q-10.12,1.5-21.33-3A59,59,0,0,1,42,575.19q-8.62-8.61-13-22.08a54.69,54.69,0,0,1-1.61-27.9,53.07,53.07,0,0,1,15.08-27.68A54,54,0,0,1,70.21,482.56ZM42.09,548.37a6.77,6.77,0,1,0-2-4.84A6.62,6.62,0,0,0,42.09,548.37ZM49,520.8A6.76,6.76,0,1,0,46.94,516,6.63,6.63,0,0,0,49,520.8ZM76.56,507a6.75,6.75,0,1,0-2-4.85A6.6,6.6,0,0,0,76.56,507Zm27.58,13.79a6.76,6.76,0,1,0-2-4.85A6.62,6.62,0,0,0,104.14,520.8Z"/></g></g></svg>