<svg xmlns="http://www.w3.org/2000/svg" viewBox="0 0 1359.58 1085.71"><defs><style>.cls-1{fill:#66b9bf;}.cls-2,.cls-3{opacity:0.2;}.cls-4{fill:#e37222;}.cls-5{fill:#f2f2f2;}.cls-6{fill:#07889b;}.cls-7,.cls-8{fill:none;}.cls-8{stroke:#07889b;stroke-linejoin:round;stroke-width:12px;stroke-dasharray:12 24;}</style></defs><title>Recurso 4</title><g id="Capa_2" data-name="Capa 2"><g id="Capa_1-2" data-name="Capa 1"><rect class="cls-1" x="804.27" y="24.56" width="555.31" height="336.67" rx="50"/><rect class="cls-1" x="676.53" y="684.95" width="601.42" height="400.77" rx="50"/><rect class="cls-1" x="11.08" y="373.37" width="434.16" height="252.92" rx="50"/><rect class="cls-1" width="673.52" height="302.04" rx="50"/><g class="cls-2"><path d="M569.89,187.7a39.92,39.92,0,0,1,18,7.86A44.49,44.49,0,0,1,600.5,211a42.63,42.63,0,0,1,4.67,19.49,41.91,41.91,0,0,1-13,30.94,42.92,42.92,0,0,1-31.31,12.82H433.59q-20.76,0-35.29-14.36a49,49,0,0,1-5.19-63.59A49.55,49.55,0,0,1,417,178.47v-2.74q0-22.56,16.26-38.64A53.63,53.63,0,0,1,472.33,121a54.33,54.33,0,0,1,28,7.52,55.58,55.58,0,0,1,20.07,19.84,32.57,32.57,0,0,1,18.33-5.47,32.21,32.21,0,0,1,23.52,9.57A31.47,31.47,0,0,1,572,175.73,35.46,35.46,0,0,1,569.89,187.7Z"/><path d="M631.15,223.87a31.46,31.46,0,0,1,14.14,6.18,35,35,0,0,1,9.92,12.09,33.45,33.45,0,0,1,3.67,15.32,33,33,0,0,1-10.19,24.31,33.73,33.73,0,0,1-24.6,10.08h-100a38,38,0,0,1-27.73-11.29,38.5,38.5,0,0,1-4.07-50,38.92,38.92,0,0,1,18.75-14v-2.15a41.15,41.15,0,0,1,12.78-30.36,42.14,42.14,0,0,1,30.72-12.63,42.71,42.71,0,0,1,22,5.91A43.6,43.6,0,0,1,592.28,193a25.68,25.68,0,0,1,14.41-4.3,25.29,25.29,0,0,1,18.48,7.53,24.71,24.71,0,0,1,7.62,18.27A27.68,27.68,0,0,1,631.15,223.87Z"/></g><path class="cls-3" d="M821.38,880.2c.35,2.6-41.4,16.77-60.36.3a6.57,6.57,0,0,1-1.19-1.38C747.7,861.24,781,784.34,817.9,785.94c36.66,1.58,66.65,76.69,49.32,96.74-14.5,16.76-66.14-.56-65.94-2.51C801.4,879,821.14,878.5,821.38,880.2Z"/><rect class="cls-3" x="652.94" y="862.93" width="306.26" height="30" rx="12.5"/><path class="cls-3" d="M1084.61,819.33H527.53a35.72,35.72,0,0,1-24.73-10.24,34.85,34.85,0,0,1-10.24-24.73V443a35,35,0,0,1,35-35h557.08a35,35,0,0,1,35,35V784.36A35,35,0,0,1,1084.61,819.33Z"/><path class="cls-4" d="M1079.08,814.59H522a35.72,35.72,0,0,1-24.73-10.24A34.85,34.85,0,0,1,487,779.62V438.26a35,35,0,0,1,35-35h557.09a35,35,0,0,1,35,35V779.62A35,35,0,0,1,1079.08,814.59Z"/><rect class="cls-5" x="790.53" y="409.05" width="20" height="20" rx="10"/><path class="cls-4" d="M804.63,880.2c.36,2.6-41.39,16.77-60.36.3a7.21,7.21,0,0,1-1.19-1.38c-12.12-17.88,21.16-94.78,58.08-93.18,36.66,1.58,66.65,76.69,49.31,96.74-14.49,16.76-66.13-.56-65.93-2.51C784.66,879,804.4,878.5,804.63,880.2Z"/><rect class="cls-4" x="644.9" y="859.92" width="306.26" height="30" rx="12.5"/><rect class="cls-5" x="512.08" y="443.12" width="573.41" height="351.72" rx="34.97"/><rect class="cls-6" x="547.42" y="473.52" width="503.14" height="138.15" rx="20"/><rect class="cls-5" x="574.55" y="498.52" width="127.74" height="88.94" rx="22.12"/><rect class="cls-5" x="736.18" y="498.27" width="127.74" height="88.94" rx="22.12"/><rect class="cls-5" x="893.61" y="499.48" width="127.74" height="88.94" rx="22.12"/><path class="cls-6" d="M618.6,519.58a28,28,0,0,1,43.46,34.83,27.8,27.8,0,0,1-11.38,10.13.65.65,0,0,1-.75,0,.63.63,0,0,1-.26-.75,58.94,58.94,0,0,0,.63-5.88,22.41,22.41,0,0,0,7.38-7.88,21.9,21.9,0,0,0,1.62-17.57,21.85,21.85,0,0,0-3.18-6.07,23.54,23.54,0,0,0-4.76-4.75,22.14,22.14,0,0,0-12.94-4.25,22,22,0,0,0-22,21.89,22.13,22.13,0,0,0,9.75,18.38.74.74,0,0,1,.38.62,53,53,0,0,0,.62,5.51.63.63,0,0,1-.25.75.65.65,0,0,1-.75,0,28,28,0,0,1-7.56-45ZM630,547.53c.42.42.38.79-.12,1.12a7.92,7.92,0,0,0-2.63,3.13c-.33.67-.71.75-1.13.25a18,18,0,0,1,12.76-31.14,17.79,17.79,0,0,1,12.26,5.32,17.9,17.9,0,0,1-.5,25.82c-.42.5-.8.42-1.13-.25a7.92,7.92,0,0,0-2.63-3.13c-.5-.33-.54-.7-.12-1.12a11.78,11.78,0,0,0,3.63-8.63,11.65,11.65,0,0,0-3.69-8.69,11.41,11.41,0,0,0-8.82-3.32,12.26,12.26,0,0,0-11.51,11.51A11.46,11.46,0,0,0,630,547.53Zm2.69-13.82a8.16,8.16,0,1,1-2.31,5.69A7.74,7.74,0,0,1,632.73,533.71Zm11.07,38.83c-.5,1.92-2.3,2.88-5.38,2.88s-4.88-1-5.38-2.88a82.31,82.31,0,0,1-1.75-8.44,54.53,54.53,0,0,1-.87-8.19q0-5.5,8-5.5t8,5.5a54.53,54.53,0,0,1-.87,8.19A85.12,85.12,0,0,1,643.8,572.54Z"/><path class="cls-6" d="M800.05,551.19a5.92,5.92,0,0,1-2.45-.69,20.71,20.71,0,0,1-2.32-1.26c-.59-.37-1.45-1-2.58-1.88a14,14,0,0,0-1.82-1.32q-15.32-11.17-21.84-16.2a2.83,2.83,0,0,1-1.13-2.38v-2.39a6,6,0,0,1,6-6h52.23a6,6,0,0,1,6,6v2.39a2.86,2.86,0,0,1-1.13,2.38q-6.15,4.78-21.85,16.2a14,14,0,0,0-1.82,1.32c-1.13.88-2,1.51-2.57,1.88a21.65,21.65,0,0,1-2.32,1.26A6,6,0,0,1,800.05,551.19ZM830.93,535a.62.62,0,0,1,.82-.12.82.82,0,0,1,.44.75v25.61a6,6,0,0,1-6,6H773.93a6,6,0,0,1-6-6V535.62a.69.69,0,0,1,.44-.69.81.81,0,0,1,.81.06q4.14,3.15,19.34,14.19c.16.17.73.63,1.69,1.38s1.74,1.32,2.32,1.7,1.34.83,2.26,1.38a11.86,11.86,0,0,0,2.7,1.19,9.43,9.43,0,0,0,2.58.38,8.45,8.45,0,0,0,2.26-.32,15.27,15.27,0,0,0,2.13-.75,14.28,14.28,0,0,0,2.14-1.19c.75-.51,1.38-.94,1.88-1.32l1.76-1.32a14,14,0,0,0,1.38-1.13Q826.41,538.52,830.93,535Z"/><path class="cls-6" d="M940.83,546.47a15.85,15.85,0,0,0-5.66,5.09,16.7,16.7,0,0,0-2.83,7.25h-7.48a3.52,3.52,0,0,1-2.55-1.07,3.48,3.48,0,0,1-1.07-2.55v-3.63a7.36,7.36,0,0,1,7.24-7.25h7.25A6.94,6.94,0,0,1,940.83,546.47Zm-3.62-7.93a7.11,7.11,0,1,1,2.15-5.1A7,7,0,0,1,937.21,538.54Zm29,9.4a12.94,12.94,0,0,1,13,13v3.29a5.39,5.39,0,0,1-5.43,5.43H941.17a5.41,5.41,0,0,1-5.44-5.43V561a13,13,0,0,1,13-13h1a17.28,17.28,0,0,0,15.4,0Zm.23-7.36a12.6,12.6,0,1,1,3.73-9A12.23,12.23,0,0,1,966.43,540.58Zm20,3.73a7.36,7.36,0,0,1,7.25,7.25v3.63a3.65,3.65,0,0,1-3.62,3.62h-7.48a16.42,16.42,0,0,0-1.47-5,15.94,15.94,0,0,0-2.95-4.25,17.11,17.11,0,0,0-4.07-3.11,6.94,6.94,0,0,1,5.09-2.16Zm1.47-5.77a7.09,7.09,0,1,1,2.16-5.1A7,7,0,0,1,987.94,538.54Z"/><rect class="cls-6" x="546.54" y="626.29" width="127.74" height="138.15" rx="20"/><path class="cls-5" d="M586.66,672.06a33.64,33.64,0,1,1-9.81,23.75A32.34,32.34,0,0,1,586.66,672.06Zm39.44,27a2.65,2.65,0,0,0,1.22-1.21,3.64,3.64,0,0,0,.41-1.63,3.6,3.6,0,0,0-.41-1.62,2.67,2.67,0,0,0-1.22-1.22l-23.81-14.48a3,3,0,0,0-3.25,0,3.09,3.09,0,0,0-1.62,2.84v28.15a3.08,3.08,0,0,0,1.62,2.84,3,3,0,0,0,3.25,0Z"/><rect class="cls-6" x="738.09" y="626.29" width="127.74" height="138.15" rx="20"/><path class="cls-5" d="M801.25,699.52A15.88,15.88,0,0,1,817,715.29v5a5.63,5.63,0,0,1-5.65,5.65H769.93a5.63,5.63,0,0,1-5.65-5.65v-5a15.88,15.88,0,0,1,15.78-15.77h2a20.59,20.59,0,0,0,17.19,0Zm.06-8.18a15.05,15.05,0,1,1,4.42-10.66A14.53,14.53,0,0,1,801.31,691.34Zm36.44-1.24a1.83,1.83,0,0,1,1.35.53,1.79,1.79,0,0,1,.53,1.35v3.77a1.81,1.81,0,0,1-1.88,1.88h-7.54v7.54a1.81,1.81,0,0,1-1.88,1.88h-3.77a1.79,1.79,0,0,1-1.35-.53,1.83,1.83,0,0,1-.53-1.35v-7.54h-7.54a1.79,1.79,0,0,1-1.35-.53,1.83,1.83,0,0,1-.53-1.35V692a1.81,1.81,0,0,1,1.88-1.88h7.54v-7.54a1.81,1.81,0,0,1,1.88-1.88h3.77a1.83,1.83,0,0,1,1.35.53,1.81,1.81,0,0,1,.53,1.35v7.54Z"/><rect class="cls-6" x="923.29" y="626.29" width="127.74" height="138.15" rx="20"/><path class="cls-5" d="M1016.69,701.3a2.64,2.64,0,0,1-2.83,2.34h-36l.73,3.94h33.09a2.71,2.71,0,0,1,2.22,1.1,3,3,0,0,1,.61,2.46l-.74,3.08a6.32,6.32,0,0,1,3.94,6.15,6.89,6.89,0,0,1-13.78,0,6.46,6.46,0,0,1,2.1-4.92H980.15a6.45,6.45,0,0,1,2.09,4.92,6.89,6.89,0,1,1-10.33-6l-8.61-42.19h-8.61a2.85,2.85,0,0,1-2.09-.86,2.81,2.81,0,0,1-.86-2.09v-2a2.81,2.81,0,0,1,.86-2.09,2.85,2.85,0,0,1,2.09-.86h12.67a2.67,2.67,0,0,1,1.78.67,3.18,3.18,0,0,1,1.05,1.66l1.11,5.54h48.34a2.82,2.82,0,0,1,2.34,1.11,2.69,2.69,0,0,1,.49,2.46Z"/><rect class="cls-3" x="170.11" y="657.76" width="563.27" height="404.08" rx="20"/><rect class="cls-5" x="163.61" y="651.27" width="563.27" height="404.08" rx="20"/><rect class="cls-4" x="163.61" y="651.27" width="563.27" height="67.35" rx="20"/><rect class="cls-5" x="602.59" y="672.45" width="25" height="25" rx="12.5"/><rect class="cls-5" x="638.49" y="672.45" width="25" height="25" rx="12.5"/><rect class="cls-5" x="675.68" y="672.45" width="25" height="25" rx="12.5"/><rect class="cls-6" x="549.79" y="750.53" width="155.6" height="279.3" rx="20"/><rect class="cls-5" x="565.88" y="767.26" width="124.18" height="92.53" rx="20"/><rect class="cls-5" x="565.86" y="960.86" width="124.18" height="40" rx="20"/><rect class="cls-5" x="565.5" y="927.35" width="81.61" height="20" rx="0.75"/><rect class="cls-5" x="565.31" y="871.27" width="95.36" height="20" rx="0.75"/><rect class="cls-5" x="565.31" y="899.31" width="121.73" height="20" rx="0.75"/><rect class="cls-6" x="369.34" y="750.53" width="155.6" height="82.48" rx="20"/><rect class="cls-6" x="188.89" y="753.12" width="155.6" height="276.3" rx="20"/><rect class="cls-6" x="369.34" y="940.97" width="155.6" height="82.48" rx="20"/><rect class="cls-6" x="367.44" y="845.75" width="155.6" height="82.48" rx="20"/><path class="cls-6" d="M603.82,817.39a23.06,23.06,0,0,0-8.2,7.38,24.25,24.25,0,0,0-4.1,10.49H580.7a5.33,5.33,0,0,1-5.25-5.25v-5.24a10.66,10.66,0,0,1,10.5-10.5h10.49A10.09,10.09,0,0,1,603.82,817.39Zm-5.25-11.48a10.29,10.29,0,1,1,3.12-7.38A10.08,10.08,0,0,1,598.57,805.91Zm42,13.61a18.76,18.76,0,0,1,18.86,18.86v4.75a7.84,7.84,0,0,1-7.87,7.87H604.31a7.84,7.84,0,0,1-7.87-7.87v-4.75a18.75,18.75,0,0,1,18.86-18.86h1.47a25,25,0,0,0,22.3,0Zm.33-10.66a18.22,18.22,0,1,1,5.41-13A17.68,17.68,0,0,1,640.88,808.86Zm29,5.41a10.66,10.66,0,0,1,10.5,10.5V830a5.33,5.33,0,0,1-5.25,5.25H664.33a23.7,23.7,0,0,0-2.14-7.21,22.71,22.71,0,0,0-4.26-6.15,24.79,24.79,0,0,0-5.9-4.51,10.06,10.06,0,0,1,7.38-3.12Zm2.13-8.36a10.29,10.29,0,1,1,3.12-7.38A10,10,0,0,1,672,805.91Z"/><path class="cls-5" d="M447.26,794.69A15.89,15.89,0,0,1,463,810.47v4.94a5.63,5.63,0,0,1-5.66,5.66H415.94a5.63,5.63,0,0,1-5.65-5.66v-4.94a15.88,15.88,0,0,1,15.78-15.78h2a20.49,20.49,0,0,0,17.19,0Zm.06-8.18a15.08,15.08,0,1,1,4.41-10.65A14.56,14.56,0,0,1,447.32,786.51Zm36.44-1.24a1.85,1.85,0,0,1,1.35.53,1.87,1.87,0,0,1,.53,1.36v3.77a1.81,1.81,0,0,1-1.88,1.88h-7.54v7.53a1.87,1.87,0,0,1-.53,1.36,1.83,1.83,0,0,1-1.35.53h-3.77a1.81,1.81,0,0,1-1.88-1.89v-7.53h-7.54a1.83,1.83,0,0,1-1.35-.53,1.79,1.79,0,0,1-.53-1.35v-3.77a1.81,1.81,0,0,1,1.88-1.89h7.54v-7.53a1.8,1.8,0,0,1,1.88-1.88h3.77a1.82,1.82,0,0,1,1.35.52,1.87,1.87,0,0,1,.53,1.36v7.53Z"/><path class="cls-5" d="M476.52,859.19a5.36,5.36,0,0,1,5.37,5.37v35.8a5.34,5.34,0,0,1-5.37,5.37H449.67v3.58h19.69a1.73,1.73,0,0,1,1.79,1.79v3.58a1.71,1.71,0,0,1-1.79,1.79H422.82a1.71,1.71,0,0,1-1.79-1.79V911.1a1.73,1.73,0,0,1,1.79-1.79h19.69v-3.58H415.66a5.34,5.34,0,0,1-5.37-5.37v-35.8a5.36,5.36,0,0,1,5.37-5.37Zm-1.79,39.38V866.35H417.45v32.22Z"/><path class="cls-5" d="M468,975.59a13.13,13.13,0,0,1,0,26.26h-1.88a11.2,11.2,0,0,1-11.26,11.26H432.37a11.22,11.22,0,0,1-11.26-11.26V979.34a3.81,3.81,0,0,1,3.76-3.75Zm-32-5.4a9.69,9.69,0,0,0-2.58-5.16,16.32,16.32,0,0,1-4.81-9.85,1.72,1.72,0,0,1,.47-1.46,1.83,1.83,0,0,1,1.4-.64h2a1.7,1.7,0,0,1,1.87,1.64,10.49,10.49,0,0,0,3.05,6.21,15,15,0,0,1,4.34,8.8,1.72,1.72,0,0,1-.47,1.46,1.84,1.84,0,0,1-1.41.65h-2A1.7,1.7,0,0,1,436,970.19Zm13.13,0a9.62,9.62,0,0,0-2.58-5.16,16.32,16.32,0,0,1-4.81-9.85,2.28,2.28,0,0,1,.24-1,1.83,1.83,0,0,1,.7-.76,1.7,1.7,0,0,1,.94-.29h2a1.71,1.71,0,0,1,1.88,1.64,10.38,10.38,0,0,0,3.05,6.21,15,15,0,0,1,4.33,8.8,1.72,1.72,0,0,1-.47,1.46,1.84,1.84,0,0,1-1.4.65h-2A1.7,1.7,0,0,1,449.14,970.19ZM468,994.35a5.63,5.63,0,1,0,0-11.26h-1.88v11.26Z"/><rect class="cls-5" x="204.11" y="772.91" width="127.74" height="73.95" rx="22.12"/><path class="cls-6" d="M248.16,786.47a28,28,0,0,1,43.45,34.83,27.74,27.74,0,0,1-11.38,10.13.66.66,0,0,1-1-.75q.5-3.37.63-5.88a22.41,22.41,0,0,0,7.38-7.88,21.9,21.9,0,0,0,1.62-17.57,21.61,21.61,0,0,0-3.19-6.07,23.5,23.5,0,0,0-4.75-4.75,21.38,21.38,0,0,0-6.07-3.12,21.6,21.6,0,0,0-6.87-1.13,22,22,0,0,0-22,21.89,22.07,22.07,0,0,0,9.75,18.38.74.74,0,0,1,.38.62,53,53,0,0,0,.62,5.51.66.66,0,0,1-1,.75,28,28,0,0,1-7.56-45Zm11.44,27.95c.41.42.37.79-.13,1.13a7.8,7.8,0,0,0-2.62,3.12c-.34.67-.71.75-1.13.25a18,18,0,0,1,12.76-31.14,17.76,17.76,0,0,1,12.25,5.32,17.88,17.88,0,0,1-.5,25.82c-.42.5-.79.42-1.12-.25a7.91,7.91,0,0,0-2.63-3.12c-.5-.34-.54-.71-.12-1.13a11.81,11.81,0,0,0,3.62-8.63,11.61,11.61,0,0,0-3.69-8.69,11.4,11.4,0,0,0-8.81-3.32A12.26,12.26,0,0,0,256,805.29,11.4,11.4,0,0,0,259.6,814.42Zm2.69-13.82a8.14,8.14,0,1,1-2.32,5.69A7.74,7.74,0,0,1,262.29,800.6Zm11.06,38.83q-.75,2.88-5.37,2.88t-5.38-2.88a82.31,82.31,0,0,1-1.75-8.44,53.5,53.5,0,0,1-.88-8.19q0-5.5,8-5.5t8,5.5a53.5,53.5,0,0,1-.88,8.19A79.69,79.69,0,0,1,273.35,839.43Z"/><rect class="cls-5" x="204.11" y="881.27" width="127.74" height="134.01" rx="22.12"/><path class="cls-6" d="M265.48,956.55a5.88,5.88,0,0,1-2.44-.69,21,21,0,0,1-2.33-1.26c-.58-.38-1.44-1-2.57-1.88a14,14,0,0,0-1.82-1.32Q241,940.23,234.47,935.2a2.86,2.86,0,0,1-1.13-2.38v-2.39a6,6,0,0,1,6-6H291.6a6,6,0,0,1,6,6v2.39a2.85,2.85,0,0,1-1.12,2.38q-6.17,4.77-21.85,16.2a13.19,13.19,0,0,0-1.82,1.32c-1.13.88-2,1.5-2.58,1.88a20.71,20.71,0,0,1-2.32,1.26A5.92,5.92,0,0,1,265.48,956.55Zm30.89-16.2a.62.62,0,0,1,.82-.12.79.79,0,0,1,.43.75v25.61a6,6,0,0,1-6,6H239.37a6,6,0,0,1-6-6V941a.68.68,0,0,1,.44-.69.8.8,0,0,1,.82.06q4.14,3.14,19.33,14.19c.17.17.73.63,1.7,1.38s1.73,1.32,2.32,1.69,1.34.84,2.26,1.39a11.67,11.67,0,0,0,2.7,1.19,9.39,9.39,0,0,0,2.57.37,8.32,8.32,0,0,0,2.26-.31,16.3,16.3,0,0,0,2.14-.75,13.06,13.06,0,0,0,2.13-1.2c.76-.5,1.38-.94,1.89-1.31l1.75-1.32a14,14,0,0,0,1.38-1.13Q291.85,943.88,296.37,940.35Z"/><path class="cls-6" d="M636.75,972.22a12.48,12.48,0,1,1-8.8-3.63A12,12,0,0,1,636.75,972.22Zm-10.26,15.37,9.23-9.23a.65.65,0,0,0,0-1.1l-1.1-1.15a.74.74,0,0,0-1.16,0l-7.52,7.52-3.51-3.51a.73.73,0,0,0-1.15,0l-1.1,1.15a.65.65,0,0,0,0,1.1l5.21,5.22A.65.65,0,0,0,626.49,987.59Z"/><rect class="cls-3" x="1027.71" y="707.62" width="176.44" height="307.78" rx="19.34"/><rect class="cls-4" x="1023.96" y="704.44" width="176.44" height="307.78" rx="19.34"/><rect class="cls-5" x="1028.7" y="722.76" width="166.95" height="277.49" rx="19.34"/><rect class="cls-5" x="1105.93" y="708.26" width="10" height="10" rx="5"/><rect class="cls-6" x="1057.06" y="740.63" width="107.47" height="119.17" rx="20"/><rect class="cls-6" x="1055.91" y="879.92" width="107.47" height="97.86" rx="20"/><path class="cls-5" d="M1087.05,776.9a33.65,33.65,0,1,1-9.81,23.75A32.35,32.35,0,0,1,1087.05,776.9Zm39.44,27a2.62,2.62,0,0,0,1.22-1.22,3.6,3.6,0,0,0,.41-1.62,3.64,3.64,0,0,0-.41-1.63,2.6,2.6,0,0,0-1.22-1.21l-23.81-14.48a3,3,0,0,0-3.25,0,3.08,3.08,0,0,0-1.62,2.84v28.14a3.07,3.07,0,0,0,1.62,2.84,3,3,0,0,0,3.25,0Z"/><path class="cls-5" d="M1131.42,933.23a2,2,0,0,1-2.09,1.73h-26.58l.55,2.9h24.4a2,2,0,0,1,1.63.82,2.19,2.19,0,0,1,.45,1.81l-.54,2.27a4.66,4.66,0,0,1,2.9,4.53,5.08,5.08,0,0,1-10.16,0,4.81,4.81,0,0,1,1.54-3.63h-19a4.78,4.78,0,0,1,1.54,3.63,5.08,5.08,0,1,1-7.62-4.44l-6.35-31.11h-6.35a2.08,2.08,0,0,1-1.54-.64,2.1,2.1,0,0,1-.64-1.54v-1.45a2.11,2.11,0,0,1,.64-1.54,2.08,2.08,0,0,1,1.54-.64H1095a2,2,0,0,1,1.32.5,2.31,2.31,0,0,1,.77,1.22l.82,4.09h35.64a2.09,2.09,0,0,1,1.73.81,2,2,0,0,1,.36,1.82Z"/><path class="cls-4" d="M563.56,187.7a39.92,39.92,0,0,1,18,7.86A44.49,44.49,0,0,1,594.17,211a42.51,42.51,0,0,1,4.67,19.49,41.91,41.91,0,0,1-13,30.94,42.92,42.92,0,0,1-31.31,12.82H427.26q-20.76,0-35.29-14.36a49,49,0,0,1-5.19-63.59,49.55,49.55,0,0,1,23.87-17.78v-2.74q0-22.56,16.26-38.64A53.63,53.63,0,0,1,466,121a54.33,54.33,0,0,1,28,7.52,55.58,55.58,0,0,1,20.07,19.84,33.6,33.6,0,0,1,41.86,4.1,31.5,31.5,0,0,1,9.68,23.25A35.46,35.46,0,0,1,563.56,187.7Z"/><path class="cls-5" d="M624.82,223.87A31.46,31.46,0,0,1,639,230.05a34.91,34.91,0,0,1,9.92,12.09,33.45,33.45,0,0,1,3.67,15.32,33,33,0,0,1-10.19,24.31,33.73,33.73,0,0,1-24.6,10.08h-100A38,38,0,0,1,490,280.56a38.5,38.5,0,0,1-4.07-50,38.92,38.92,0,0,1,18.75-14v-2.15a41.15,41.15,0,0,1,12.78-30.36,42.14,42.14,0,0,1,30.72-12.63,42.71,42.71,0,0,1,22,5.91A43.52,43.52,0,0,1,586,193a25.68,25.68,0,0,1,14.41-4.3,25.29,25.29,0,0,1,18.48,7.53,24.7,24.7,0,0,1,7.62,18.27A27.68,27.68,0,0,1,624.82,223.87Z"/><path class="cls-7" d="M11.08,114.51c0,67.35,47.42,121.85,106,121.85"/><path class="cls-7" d="M117.1,236.36c0-49.85,39.06-90.2,87.32-90.2"/><line class="cls-7" x1="1204.14" y1="836.26" x2="1267.52" y2="836.26"/><line class="cls-8" x1="673.52" y1="263.26" x2="1241.44" y2="263.26"/><line class="cls-8" x1="365.54" y1="214.21" x2="160.76" y2="214.21"/><line class="cls-8" x1="144.7" y1="208.53" x2="144.7" y2="836.53"/><line class="cls-8" x1="1249.7" y1="258.03" x2="1249.7" y2="833.03"/><line class="cls-8" x1="1228.7" y1="804.53" x2="1208.7" y2="804.53"/><g class="cls-2"><path d="M1250.42,330.59q2.74-2.71,5.19,0l33.9,33.5q2.74,2.43,0,5.14l-80,79.08L1172.24,455a7.06,7.06,0,0,1-6.41-2.11,6.86,6.86,0,0,1-2.14-6.34l6.72-36.83Zm-59.86,97.8V413.9h-11l-3.66,19.32,9.77,9.66,19.54-3.63V428.39Zm11-25.36q3,3,6.11,0l47-46.48q3-3,0-6t-6.11,0l-47,46.49Q1198.5,400,1201.56,403Zm114.22-59.76-14,13.88c-1.83,1.81-3.57,1.81-5.19,0l-33.9-33.5q-2.76-2.41,0-5.13l14-13.89a14.88,14.88,0,0,1,20.76,0l18.33,18.11a14.47,14.47,0,0,1,0,20.53Z"/></g><path class="cls-4" d="M1250.42,324.25q2.74-2.72,5.19,0l33.9,33.5q2.74,2.42,0,5.13l-80,79.09-37.26,6.64a7,7,0,0,1-6.41-2.12,6.84,6.84,0,0,1-2.14-6.33l6.72-36.83Zm-59.86,97.8V407.56h-11l-3.66,19.32,9.77,9.65,19.54-3.62V422.05Zm11-25.36q3,3,6.11,0l47-46.48q3-3,0-6t-6.11,0l-47,46.48Q1198.5,393.68,1201.56,396.69Zm114.22-59.77-14,13.89c-1.83,1.81-3.57,1.81-5.19,0l-33.9-33.51c-1.84-1.6-1.84-3.32,0-5.13l14-13.88a14.85,14.85,0,0,1,20.76,0l18.33,18.11a14.46,14.46,0,0,1,0,20.52Z"/><path class="cls-5" d="M876.39,1070.84c-3.85,1.91-11.56,3.93-21.43,3.93-22.88,0-40.09-14.4-40.09-40.7,0-25.11,17.21-42.13,42.38-42.13,10.11,0,16.49,2.14,19.26,3.57L874,1004a38.57,38.57,0,0,0-16.37-3.33c-19,0-31.67,12-31.67,33.08,0,19.64,11.44,32.25,31.19,32.25,6.38,0,12.88-1.31,17.09-3.33Z"/><path class="cls-5" d="M888.07,1060.84a37.39,37.39,0,0,0,18.78,5.24c10.71,0,17-5.59,17-13.68,0-7.5-4.33-11.79-15.29-16-13.24-4.64-21.43-11.43-21.43-22.73,0-12.5,10.48-21.78,26.25-21.78,8.31,0,14.33,1.91,17.94,3.93l-2.89,8.45a32.6,32.6,0,0,0-15.41-3.81c-11.08,0-15.29,6.55-15.29,12,0,7.5,4.94,11.19,16.13,15.47,13.73,5.24,20.71,11.78,20.71,23.56,0,12.38-9.27,23.21-28.41,23.21-7.83,0-16.38-2.38-20.71-5.24Z"/><path class="cls-5" d="M947.42,1060.84a37.43,37.43,0,0,0,18.79,5.24c10.71,0,17-5.59,17-13.68,0-7.5-4.33-11.79-15.29-16-13.24-4.64-21.43-11.43-21.43-22.73,0-12.5,10.48-21.78,26.25-21.78,8.3,0,14.32,1.91,17.94,3.93l-2.89,8.45a32.6,32.6,0,0,0-15.41-3.81c-11.08,0-15.29,6.55-15.29,12,0,7.5,4.93,11.19,16.13,15.47,13.72,5.24,20.71,11.78,20.71,23.56,0,12.38-9.27,23.21-28.42,23.21-7.82,0-16.37-2.38-20.7-5.24Z"/><path class="cls-5" d="M20.68,135.64l41.58-34.86,1.6,6.92L28.7,136.54l0,.2L73,147.24l1.6,6.93L21.93,141.06Z"/><path class="cls-5" d="M82.22,81.16l6.54,28.3,33.1-7.64-6.54-28.3,8.94-2.07,15.62,67.64-8.94,2.07-7.32-31.72-33.1,7.65,7.32,31.71-8.84,2L73.39,83.2Z"/><path class="cls-5" d="M154.3,72.34l-20.82,4.8-1.71-7.42L182.44,58l1.72,7.43-20.92,4.83,13.9,60.21-8.94,2.06Z"/><path class="cls-5" d="M256.49,80.88c-2.68-9.32-5.91-20.52-7.76-29l-.3.07c-.51,8.47-1.38,17.66-2.7,27.69l-4.51,35.6-6.7,1.55L216,87.16c-5.45-8.78-10.2-16.88-14-24.46l-.2,0c1.74,8.48,3.85,19.94,5.58,30.21l4.87,29.43-8.43,1.94L193,55.58,204.27,53,223.5,83c4.77,7.67,8.82,14.56,12.17,21.19l.3-.07c.15-7.23.87-15.22,1.95-24.45l4.63-35.53,11.27-2.6,19.89,66.65-8.63,2Z"/><path class="cls-5" d="M271.69,37.41l8.83-2,13.93,60.32,29.24-6.75,1.7,7.32-38.08,8.79Z"/><path class="cls-5" d="M358.14,27.81,333,33.63,334.29,51a36.5,36.5,0,0,1,5.28-1.64,28.94,28.94,0,0,1,15,.23,19.06,19.06,0,0,1,13.32,14.58c2.94,12.74-5.12,24.65-19.44,28-7.21,1.67-13.76,1.07-17.37-.21l.68-7.24a30.7,30.7,0,0,0,14.95.35c8.43-1.94,14.39-9,12.37-17.76-2.05-8.41-9.13-13.12-22.33-10.07a70,70,0,0,0-9,2.82l-3-32.3,31.58-7.29Z"/><path class="cls-5" d="M427.91,47.43,386.3,82.2l-1.59-6.93,35.46-28.9,0-.2L375.58,35.73,374,28.81l52.63,13Z"/><path class="cls-5" d="M325.94,524.36c9.88,0,11.27-5.37,11.27-10.32a80.78,80.78,0,0,0-1.11-11.42A80.61,80.61,0,0,1,335,491.07c0-12.66,8.35-18,20.18-18h2.92v7.56h-2.5c-8.22.14-11,4.41-11,11.83a60.37,60.37,0,0,0,1,9.91,61.7,61.7,0,0,1,1,10.45c.14,8.81-3.76,13.21-10,14.86v.27c6.26,1.52,10.16,6.19,10,15a61.7,61.7,0,0,1-1,10.45,61.9,61.9,0,0,0-1,9.91c0,7.7,3.2,11.83,11,12h2.5v7.57h-2.92c-11.55,0-20.18-5-20.18-18.85a77.08,77.08,0,0,1,1.11-11.28,74.94,74.94,0,0,0,1.11-11.14c0-4.26-1.39-10.18-11.27-10.18Z"/><path class="cls-5" d="M397.2,531.37c-9.88,0-11.27,5.92-11.27,10.18A74.94,74.94,0,0,0,387,552.69,77.08,77.08,0,0,1,388.15,564c0,13.9-8.76,18.85-20.18,18.85h-2.92v-7.57h2.37c7.79-.13,11.13-4.26,11.13-12a83.65,83.65,0,0,0-1-9.91,61.39,61.39,0,0,1-1.12-10.45c0-8.81,3.9-13.48,10-15v-.27c-6.12-1.65-10-6-10-14.86a61.39,61.39,0,0,1,1.12-10.45,80.88,80.88,0,0,0,1-9.91c0-7.42-2.92-11.69-11-11.83h-2.51v-7.56h2.78c11.83,0,20.32,5.36,20.32,18A80.61,80.61,0,0,1,387,502.62,80.78,80.78,0,0,0,385.93,514c0,5,1.39,10.32,11.27,10.32Z"/><text/><path class="cls-5" d="M848.58,90.79l67.66-25.95-1,9.44L858.31,95.41l0,.27,51.31,32.5-1,9.44L847.81,98.18Z"/><path class="cls-5" d="M940,114.37l.09-3.59c-.06-7.34,3.29-15.28,11.06-22.63,7-6.73,11-11.7,11.67-17.86.74-7-3.21-12.09-11.91-13.15-5-.52-10.69.54-14.43,2.78l-2.41-9c5-2.79,13-4.16,20.37-3.39,15.91,1.67,22.09,12.14,21,22.54-1,9.3-7,15.59-14.41,22.55-6.84,6.47-9.7,12.4-10,19.42l-.22,3.43Zm2.06,28.29c-4.7-.49-7.64-4.54-7.14-9.32.54-5.07,4.37-8.26,9.22-7.75s7.79,4.42,7.26,9.48c-.51,4.79-4.08,8.15-9.2,7.61Z"/><path class="cls-5" d="M988.72,101c.89-8.48,1.33-15.35,1.72-21.67l10.93,1.15-.64,11.41.28,0c5.83-7.55,14.22-11.51,25.16-10.36,16.19,1.71,26.95,16.53,24.83,36.64-2.5,23.8-18.41,34-34.19,32.37-8.86-.93-16.2-5.58-19.53-12.57l-.27,0-3.79,36-12-1.26Zm10.18,18.92a27.41,27.41,0,0,0,0,5,18.86,18.86,0,0,0,16.79,16c12.87,1.35,21.44-8.26,23-23.44,1.4-13.27-4.47-25.37-17.34-26.72-8.3-.88-16.67,4.19-20,13a19.07,19.07,0,0,0-1.35,4.84Z"/><path class="cls-5" d="M1073,56.7,1085.18,58l-4.35,41.31.28,0a22.67,22.67,0,0,1,9.61-7.56,25.38,25.38,0,0,1,12.82-2.11c9,.94,22.81,7.93,20.41,30.77l-4.14,39.4-12.18-1.28,4-38c1.12-10.67-1.94-20.12-13.43-21.33a17.57,17.57,0,0,0-17.6,10.32,14.54,14.54,0,0,0-1.44,5.66l-4.19,40-12.18-1.28Z"/><path class="cls-5" d="M1144.29,117.3c.9-8.48,1.34-15.35,1.72-21.67L1157,96.78l-.64,11.41.27,0c5.83-7.54,14.23-11.5,25.16-10.35,16.2,1.7,27,16.52,24.84,36.63-2.5,23.8-18.41,34-34.19,32.37-8.86-.93-16.21-5.58-19.53-12.57l-.28,0-3.78,36-12-1.27Zm10.19,18.92a26.52,26.52,0,0,0,0,5,18.84,18.84,0,0,0,16.79,16c12.87,1.35,21.44-8.26,23-23.44,1.4-13.27-4.47-25.37-17.34-26.72-8.31-.87-16.68,4.19-20,13a19.85,19.85,0,0,0-1.35,4.83Z"/><path class="cls-5" d="M1285,144.27l-67.65,25.81,1-9.44,57.35-21.08,0-.28-51.72-32.54,1-9.44,60.8,39.31Z"/><g class="cls-2"><path d="M199,500.66l7.91,3.67c2.64,1.44,3.41,3.53,2.33,6.26q-2.1,5.61-9.77,14.25a5.24,5.24,0,0,1-7,1.08l-7-3.67a40.35,40.35,0,0,1-12.56,6.9v7.34a4.73,4.73,0,0,1-1.4,3.24,5.18,5.18,0,0,1-3.26,1.73,52.47,52.47,0,0,1-17.68,0,5.16,5.16,0,0,1-4.65-5v-7.34a39.82,39.82,0,0,1-12.8-6.9l-6.75,3.67a5.24,5.24,0,0,1-7-1.08q-7.44-8.43-9.77-14.25c-1.08-2.73-.31-4.82,2.33-6.26l7.68-3.67a33.49,33.49,0,0,1,0-13.6L112,483.39q-4.19-2.14-2.33-6.26,2.33-5.82,9.77-14.24,2.81-3.24,7-1.08l6.75,3.45a39.8,39.8,0,0,1,12.8-6.69v-7.34a4.75,4.75,0,0,1,1.28-3.34,5,5,0,0,1,3.37-1.62,52,52,0,0,1,17.68,0,3.13,3.13,0,0,1,1.75.54,12.48,12.48,0,0,1,1.51,1.18,4.41,4.41,0,0,1,1.05,1.52,4.6,4.6,0,0,1,.35,1.72v7.34a43.37,43.37,0,0,1,12.56,6.69l7-3.45q3.94-2.37,7,1.08,7.44,8.21,9.77,14.24c1.08,2.74.31,4.83-2.33,6.26L199,487.06A33.49,33.49,0,0,1,199,500.66Zm-27.22,4.53a17.89,17.89,0,0,0,4.42-9.92,13.39,13.39,0,0,0-2.09-9,20.16,20.16,0,0,0-6.63-6.15,15.68,15.68,0,0,0-9.66-1.84,21.87,21.87,0,0,0-10.7,4.21,17.94,17.94,0,0,0-4.42,9.93,13.4,13.4,0,0,0,2.09,9,20.16,20.16,0,0,0,6.63,6.15,15.76,15.76,0,0,0,9.66,1.83A21.68,21.68,0,0,0,171.79,505.19Zm56.54-25-1.86,3a2.81,2.81,0,0,1-3.49,1.29,25.85,25.85,0,0,1-7.45-4.1,2.42,2.42,0,0,1-.7-3.45l1.87-3a21.09,21.09,0,0,1-3.73-5.83h-3.72c-1.71,0-2.64-.79-2.79-2.38a17.35,17.35,0,0,1,0-8q.22-2.16,2.79-2.16H213a21.09,21.09,0,0,1,3.73-5.83l-1.87-3.24a2.16,2.16,0,0,1,.7-3.23,26.12,26.12,0,0,1,7.45-4.11,2.59,2.59,0,0,1,3.49,1.08l1.86,3.24a21.62,21.62,0,0,1,7.44,0l1.86-3.24a2.59,2.59,0,0,1,3.49-1.08,20.67,20.67,0,0,1,7.45,4.11,2.16,2.16,0,0,1,.7,3.23l-1.86,3.24a21.52,21.52,0,0,1,3.72,5.83h3.72q2.57,0,2.79,2.16a17.35,17.35,0,0,1,0,8c-.15,1.59-1.08,2.38-2.79,2.38h-3.72a21.52,21.52,0,0,1-3.72,5.83l1.86,3a2.37,2.37,0,0,1-.7,3.45,25.72,25.72,0,0,1-7.45,4.1,2.81,2.81,0,0,1-3.49-1.29l-1.86-3A21.62,21.62,0,0,1,228.33,480.16Zm0,64.54-1.86,3A2.81,2.81,0,0,1,223,549a26.09,26.09,0,0,1-7.45-4.1,2.42,2.42,0,0,1-.7-3.45l1.87-3a21.09,21.09,0,0,1-3.73-5.83h-3.72c-1.71,0-2.64-.79-2.79-2.38a17.35,17.35,0,0,1,0-8q.22-2.16,2.79-2.16H213A24.77,24.77,0,0,1,216.7,514l-1.87-3a2.42,2.42,0,0,1,.7-3.45,22.63,22.63,0,0,1,7.45-3.89,2.59,2.59,0,0,1,3.49,1.08l1.86,3.24a21.62,21.62,0,0,1,7.44,0l1.86-3.24a2.59,2.59,0,0,1,3.49-1.08,22.53,22.53,0,0,1,7.45,3.89,2.42,2.42,0,0,1,.7,3.45l-1.86,3a25.36,25.36,0,0,1,3.72,6.05h3.72q2.57,0,2.79,2.16a17.35,17.35,0,0,1,0,8c-.15,1.59-1.08,2.38-2.79,2.38h-3.72a21.52,21.52,0,0,1-3.72,5.83l1.86,3a2.42,2.42,0,0,1-.7,3.45,26,26,0,0,1-7.45,4.1,2.81,2.81,0,0,1-3.49-1.29l-1.86-3A21.62,21.62,0,0,1,228.33,544.7ZM226,467.42a9.53,9.53,0,0,0,8.61,1.73c2.94-.87,4.77-2.56,5.47-5.08s0-5.21-2-8.09a9.56,9.56,0,0,0-8.61-1.73q-4.43,1.31-5.47,5.08C223.33,461.85,224,464.54,226,467.42ZM226,532a9.53,9.53,0,0,0,8.61,1.73c2.94-.87,4.77-2.56,5.47-5.08s0-5.21-2-8.09a9.56,9.56,0,0,0-8.61-1.73q-4.43,1.31-5.47,5.08C223.33,526.38,224,529.08,226,532Z"/><path d="M170.83,460.46l8.36,4.13q4.17,2.43,2.46,7.05-2.22,6.32-10.33,16-3.19,3.65-7.38,1.21l-7.38-4.13a42,42,0,0,1-13.27,7.78v8.26a5.51,5.51,0,0,1-1.48,3.65,5.35,5.35,0,0,1-3.44,1.94,52,52,0,0,1-18.69,0,5.08,5.08,0,0,1-3.57-1.94,5.78,5.78,0,0,1-1.35-3.65v-8.26a41.38,41.38,0,0,1-13.52-7.78l-7.14,4.13q-4.18,2.43-7.37-1.21-7.87-9.48-10.33-16-1.73-4.62,2.46-7.05L87,460.46a40.28,40.28,0,0,1,0-15.32L78.86,441q-4.42-2.43-2.46-7.05,2.46-6.56,10.33-16,2.94-3.65,7.37-1.21l7.14,3.88a41.12,41.12,0,0,1,13.52-7.53V404.8a5.61,5.61,0,0,1,1.35-3.77,5.26,5.26,0,0,1,3.57-1.82,51.5,51.5,0,0,1,18.69,0,3.16,3.16,0,0,1,1.84.6,12.9,12.9,0,0,1,1.6,1.34,4.91,4.91,0,0,1,1.11,1.7,5.61,5.61,0,0,1,.37,1.95v8.26a44.8,44.8,0,0,1,13.27,7.53l7.38-3.88q4.19-2.68,7.38,1.21,7.86,9.24,10.33,16,1.71,4.62-2.46,7.05l-8.36,4.13A40.28,40.28,0,0,1,170.83,460.46Zm-28.77,5.1a20.91,20.91,0,0,0,4.67-11.18,15.83,15.83,0,0,0-2.21-10.09,22.06,22.06,0,0,0-7-6.92,15.75,15.75,0,0,0-10.21-2.07A22.33,22.33,0,0,0,116,440a20.76,20.76,0,0,0-4.67,11.18,15.83,15.83,0,0,0,2.21,10.09,21.86,21.86,0,0,0,7,6.92,15.67,15.67,0,0,0,10.2,2.07A22.19,22.19,0,0,0,142.06,465.56Zm59.75-28.19-2,3.4a2.9,2.9,0,0,1-3.69,1.46,27.3,27.3,0,0,1-7.87-4.62,2.82,2.82,0,0,1-.74-3.89l2-3.4a24.47,24.47,0,0,1-3.94-6.57h-3.93a2.62,2.62,0,0,1-3-2.67,20.65,20.65,0,0,1,0-9c.16-1.62,1.14-2.43,3-2.43h3.93a24.47,24.47,0,0,1,3.94-6.57l-2-3.64a2.52,2.52,0,0,1,.74-3.65,27.3,27.3,0,0,1,7.87-4.62,2.66,2.66,0,0,1,3.69,1.22l2,3.65a21.25,21.25,0,0,1,7.87,0l2-3.65a2.66,2.66,0,0,1,3.69-1.22,21.68,21.68,0,0,1,7.87,4.62,2.52,2.52,0,0,1,.73,3.65l-2,3.64a24.44,24.44,0,0,1,3.93,6.57h3.94c1.8,0,2.78.81,3,2.43a21,21,0,0,1,0,9,2.63,2.63,0,0,1-3,2.67h-3.94a24.44,24.44,0,0,1-3.93,6.57l2,3.4q1.23,2.43-.73,3.89a27.43,27.43,0,0,1-7.87,4.62,2.89,2.89,0,0,1-3.69-1.46l-2-3.4A21.69,21.69,0,0,1,201.81,437.37Zm0,72.67-2,3.4a2.89,2.89,0,0,1-3.69,1.46,27.07,27.07,0,0,1-7.87-4.62,2.82,2.82,0,0,1-.74-3.89l2-3.4a24.26,24.26,0,0,1-3.94-6.56h-3.93a2.63,2.63,0,0,1-3-2.68,20.65,20.65,0,0,1,0-9c.16-1.62,1.14-2.43,3-2.43h3.93a28.68,28.68,0,0,1,3.94-6.81l-2-3.4a2.82,2.82,0,0,1,.74-3.89,23.33,23.33,0,0,1,7.87-4.37,2.65,2.65,0,0,1,3.69,1.21l2,3.65a21.25,21.25,0,0,1,7.87,0l2-3.65a2.65,2.65,0,0,1,3.69-1.21,23.43,23.43,0,0,1,7.87,4.37,2.83,2.83,0,0,1,.73,3.89l-2,3.4a28.64,28.64,0,0,1,3.93,6.81h3.94c1.8,0,2.78.81,3,2.43a21,21,0,0,1,0,9,2.64,2.64,0,0,1-3,2.68h-3.94A24.23,24.23,0,0,1,222,503l2,3.4a2.83,2.83,0,0,1-.73,3.89,27.2,27.2,0,0,1-7.87,4.62,2.88,2.88,0,0,1-3.69-1.46l-2-3.4A21.69,21.69,0,0,1,201.81,510Zm-2.46-87q4.43,3.41,9.1,1.94a7.91,7.91,0,0,0,5.78-5.71c.74-2.84,0-5.87-2.09-9.12q-4.42-3.39-9.1-1.94a7.91,7.91,0,0,0-5.78,5.71Q196.17,418.17,199.35,423Zm0,72.67q4.43,3.41,9.1,1.94a7.9,7.9,0,0,0,5.78-5.71q1.11-4.24-2.09-9.11-4.42-3.4-9.1-1.95a7.91,7.91,0,0,0-5.78,5.71Q196.17,490.84,199.35,495.7Z"/></g><path class="cls-5" d="M189,499.11l7.91,3.67c2.64,1.44,3.41,3.52,2.33,6.26q-2.1,5.61-9.77,14.24a5.24,5.24,0,0,1-7,1.08l-7-3.67a40.43,40.43,0,0,1-12.57,6.91v7.34a4.71,4.71,0,0,1-1.39,3.24,5.17,5.17,0,0,1-3.26,1.72,52,52,0,0,1-17.68,0,5.12,5.12,0,0,1-4.65-5V527.6a39.84,39.84,0,0,1-12.8-6.91l-6.75,3.67a5.24,5.24,0,0,1-7-1.08Q102,514.87,99.64,509c-1.08-2.74-.31-4.82,2.33-6.26l7.67-3.67a33.49,33.49,0,0,1,0-13.6L102,481.84q-4.2-2.16-2.33-6.26,2.33-5.83,9.77-14.25c1.86-2.16,4.19-2.51,7-1.08l6.75,3.46a39.5,39.5,0,0,1,12.8-6.69v-7.34a4.81,4.81,0,0,1,1.27-3.35,5.17,5.17,0,0,1,3.38-1.62,52.47,52.47,0,0,1,17.68,0,3.13,3.13,0,0,1,1.75.54,12.55,12.55,0,0,1,1.51,1.19,4.22,4.22,0,0,1,1,1.51,4.46,4.46,0,0,1,.35,1.73V457a43,43,0,0,1,12.57,6.69l7-3.46q3.94-2.37,7,1.08,7.44,8.21,9.77,14.25c1.08,2.73.31,4.82-2.33,6.26L189,485.51A33.49,33.49,0,0,1,189,499.11Zm-27.22,4.53a17.91,17.91,0,0,0,4.42-9.93,13.4,13.4,0,0,0-2.09-9,20.38,20.38,0,0,0-6.63-6.15,15.76,15.76,0,0,0-9.66-1.83,21.85,21.85,0,0,0-10.7,4.2,17.94,17.94,0,0,0-4.42,9.93,13.32,13.32,0,0,0,2.09,9A20.16,20.16,0,0,0,141.4,506a15.68,15.68,0,0,0,9.66,1.84A21.78,21.78,0,0,0,161.76,503.64Zm56.54-25-1.86,3a2.8,2.8,0,0,1-3.49,1.3,26.2,26.2,0,0,1-7.45-4.1,2.42,2.42,0,0,1-.7-3.46l1.86-3a21.29,21.29,0,0,1-3.72-5.83h-3.72q-2.57,0-2.79-2.37a17.12,17.12,0,0,1,0-8c.15-1.43,1.08-2.16,2.79-2.16h3.72a21.09,21.09,0,0,1,3.72-5.82l-1.86-3.24a2.16,2.16,0,0,1,.7-3.24,26,26,0,0,1,7.45-4.1,2.59,2.59,0,0,1,3.49,1.08l1.86,3.24a21.13,21.13,0,0,1,7.44,0l1.86-3.24a2.58,2.58,0,0,1,3.49-1.08,20.67,20.67,0,0,1,7.45,4.1,2.17,2.17,0,0,1,.7,3.24l-1.87,3.24A21.12,21.12,0,0,1,241.1,454h3.72c1.7,0,2.64.73,2.79,2.16a17.39,17.39,0,0,1,0,8c-.15,1.58-1.09,2.37-2.79,2.37H241.1a21.32,21.32,0,0,1-3.73,5.83l1.87,3a2.38,2.38,0,0,1-.7,3.46,26.48,26.48,0,0,1-7.45,4.1,2.8,2.8,0,0,1-3.49-1.3l-1.86-3A21.62,21.62,0,0,1,218.3,478.6Zm0,64.54-1.86,3a2.8,2.8,0,0,1-3.49,1.3,26.2,26.2,0,0,1-7.45-4.1,2.42,2.42,0,0,1-.7-3.46l1.86-3a21.29,21.29,0,0,1-3.72-5.83h-3.72q-2.57,0-2.79-2.37a17.12,17.12,0,0,1,0-8q.23-2.16,2.79-2.16h3.72a24.79,24.79,0,0,1,3.72-6l-1.86-3a2.42,2.42,0,0,1,.7-3.46,22.51,22.51,0,0,1,7.45-3.88,2.58,2.58,0,0,1,3.49,1.08l1.86,3.24a21.13,21.13,0,0,1,7.44,0l1.86-3.24a2.58,2.58,0,0,1,3.49-1.08,22.71,22.71,0,0,1,7.45,3.88,2.43,2.43,0,0,1,.7,3.46l-1.87,3a24.83,24.83,0,0,1,3.73,6h3.72c1.7,0,2.64.72,2.79,2.16a17.39,17.39,0,0,1,0,8c-.15,1.58-1.09,2.37-2.79,2.37H241.1a21.32,21.32,0,0,1-3.73,5.83l1.87,3a2.43,2.43,0,0,1-.7,3.46,26.48,26.48,0,0,1-7.45,4.1,2.8,2.8,0,0,1-3.49-1.3l-1.86-3A21.62,21.62,0,0,1,218.3,543.14ZM216,465.86a9.5,9.5,0,0,0,8.61,1.73c2.94-.86,4.77-2.55,5.47-5.07s0-5.21-2-8.09a9.51,9.51,0,0,0-8.61-1.73Q215,454,214,457.77T216,465.86Zm0,64.54a9.53,9.53,0,0,0,8.61,1.73c2.94-.86,4.77-2.55,5.47-5.07s0-5.22-2-8.1a9.53,9.53,0,0,0-8.61-1.72q-4.43,1.29-5.47,5.07T216,530.4Z"/><path class="cls-4" d="M160.8,458.9l8.36,4.13q4.17,2.43,2.46,7.05-2.22,6.33-10.33,16-3.19,3.64-7.38,1.22l-7.38-4.13A41.93,41.93,0,0,1,133.25,491v8.27a5.48,5.48,0,0,1-1.47,3.64,5.4,5.4,0,0,1-3.44,1.95,52,52,0,0,1-18.69,0,5.13,5.13,0,0,1-3.57-1.95,5.75,5.75,0,0,1-1.35-3.64V491a41.5,41.5,0,0,1-13.53-7.77l-7.13,4.13q-4.18,2.43-7.38-1.22-7.86-9.48-10.32-16-1.73-4.62,2.46-7.05l8.11-4.13a40.23,40.23,0,0,1,0-15.31l-8.11-4.13q-4.42-2.43-2.46-7,2.44-6.57,10.32-16,3-3.66,7.38-1.22L91.2,419a41.47,41.47,0,0,1,13.53-7.54v-8.26a5.63,5.63,0,0,1,1.35-3.77,5.26,5.26,0,0,1,3.57-1.82,52,52,0,0,1,18.69,0,3.19,3.19,0,0,1,1.84.61,12.83,12.83,0,0,1,1.6,1.33,4.86,4.86,0,0,1,1.11,1.71,5.54,5.54,0,0,1,.36,1.94v8.26A44.75,44.75,0,0,1,146.53,419l7.38-3.89q4.18-2.67,7.38,1.22,7.86,9.24,10.33,16,1.71,4.62-2.46,7l-8.36,4.13A40.23,40.23,0,0,1,160.8,458.9ZM132,464a20.85,20.85,0,0,0,4.68-11.18,15.79,15.79,0,0,0-2.22-10.08,21.86,21.86,0,0,0-7-6.93,15.84,15.84,0,0,0-10.21-2.07A22.33,22.33,0,0,0,106,438.48a20.79,20.79,0,0,0-4.67,11.18,15.76,15.76,0,0,0,2.21,10.09,21.79,21.79,0,0,0,7,6.93,15.72,15.72,0,0,0,10.2,2.06A22.12,22.12,0,0,0,132,464Zm59.76-28.19-2,3.4a2.87,2.87,0,0,1-3.68,1.46,26.72,26.72,0,0,1-7.87-4.62,2.82,2.82,0,0,1-.74-3.89l2-3.4a24,24,0,0,1-3.94-6.56h-3.93a2.63,2.63,0,0,1-3-2.67,20.7,20.7,0,0,1,0-9c.16-1.62,1.14-2.43,3-2.43h3.93a24,24,0,0,1,3.94-6.56l-2-3.65a2.51,2.51,0,0,1,.74-3.64,26.72,26.72,0,0,1,7.87-4.62,2.65,2.65,0,0,1,3.68,1.21l2,3.65a21.25,21.25,0,0,1,7.87,0l2-3.65a2.65,2.65,0,0,1,3.69-1.21,21.4,21.4,0,0,1,7.87,4.62,2.51,2.51,0,0,1,.73,3.64l-2,3.65a24.23,24.23,0,0,1,3.93,6.56h3.93c1.81,0,2.79.81,3,2.43a21,21,0,0,1,0,9,2.64,2.64,0,0,1-3,2.67h-3.93a24.23,24.23,0,0,1-3.93,6.56l2,3.4c.82,1.63.58,2.92-.73,3.89a27,27,0,0,1-7.87,4.62,2.88,2.88,0,0,1-3.69-1.46l-2-3.4A21.25,21.25,0,0,1,191.78,435.81Zm0,72.67-2,3.41a2.88,2.88,0,0,1-3.68,1.45,26.92,26.92,0,0,1-7.87-4.61,2.82,2.82,0,0,1-.74-3.89l2-3.41a24,24,0,0,1-3.94-6.56h-3.93a2.63,2.63,0,0,1-3-2.67,20.65,20.65,0,0,1,0-9c.16-1.62,1.14-2.44,3-2.44h3.93a28.28,28.28,0,0,1,3.94-6.8l-2-3.4a2.82,2.82,0,0,1,.74-3.89,23.09,23.09,0,0,1,7.87-4.38,2.65,2.65,0,0,1,3.68,1.22l2,3.64a21.69,21.69,0,0,1,7.87,0l2-3.64a2.66,2.66,0,0,1,3.69-1.22,23.28,23.28,0,0,1,7.87,4.38,2.83,2.83,0,0,1,.73,3.89l-2,3.4a28.58,28.58,0,0,1,3.93,6.8h3.93c1.81,0,2.79.82,3,2.44a21,21,0,0,1,0,9,2.64,2.64,0,0,1-3,2.67h-3.93a24.23,24.23,0,0,1-3.93,6.56l2,3.41a2.83,2.83,0,0,1-.73,3.89,27.18,27.18,0,0,1-7.87,4.61,2.88,2.88,0,0,1-3.69-1.45l-2-3.41A21.25,21.25,0,0,1,191.78,508.48Zm-2.46-87q4.43,3.4,9.1,1.94a7.9,7.9,0,0,0,5.78-5.71q1.11-4.24-2.09-9.11-4.43-3.4-9.1-1.95a7.93,7.93,0,0,0-5.78,5.71Q186.12,416.61,189.32,421.47Zm0,72.67q4.43,3.41,9.1,1.95a7.93,7.93,0,0,0,5.78-5.71q1.11-4.26-2.09-9.12-4.43-3.4-9.1-1.94a7.91,7.91,0,0,0-5.78,5.71Q186.12,489.28,189.32,494.14Z"/></g></g></svg>