<svg xmlns="http://www.w3.org/2000/svg" viewBox="0 0 501.82 411.36"><defs><style>.cls-1{fill:#66b9bf;}.cls-2{opacity:0.2;}.cls-3{fill:#e37222;}.cls-4,.cls-6{fill:#f2f2f2;}.cls-5{fill:#07889b;}.cls-6{font-size:69.28px;font-family:FontAwesome5Free-Solid, "Font Awesome 5 Free";}</style></defs><title>Recurso 11</title><g id="Capa_2" data-name="Capa 2"><g id="Capa_1-2" data-name="Capa 1"><rect class="cls-1" x="192.63" y="185.21" width="309.18" height="226.15" rx="53.06"/><rect class="cls-2" x="173.51" y="74.56" width="176.44" height="307.78" rx="19.34"/><rect class="cls-1" width="309.18" height="226.15" rx="53.06"/><rect class="cls-3" x="169.76" y="71.38" width="176.44" height="307.78" rx="19.34"/><rect class="cls-4" x="174.5" y="89.7" width="166.95" height="277.49" rx="19.34"/><rect class="cls-4" x="251.72" y="75.2" width="10" height="10" rx="5"/><rect class="cls-5" x="202.86" y="107.57" width="107.47" height="119.17" rx="20"/><rect class="cls-5" x="201.71" y="246.86" width="107.47" height="97.86" rx="20"/><text class="cls-6" transform="translate(221.96 193.57)"></text><path class="cls-4" d="M277.22,300.17a2,2,0,0,1-2.09,1.73H248.55l.55,2.9h24.4a2,2,0,0,1,1.63.82,2.19,2.19,0,0,1,.45,1.81L275,309.7a4.66,4.66,0,0,1,2.9,4.53,5.08,5.08,0,0,1-10.16,0,4.81,4.81,0,0,1,1.54-3.63h-19a4.78,4.78,0,0,1,1.54,3.63,5.08,5.08,0,0,1-10.16,0,4.92,4.92,0,0,1,2.54-4.44l-6.35-31.11H231.5A2.08,2.08,0,0,1,230,278a2.11,2.11,0,0,1-.64-1.54v-1.45a2.1,2.1,0,0,1,.64-1.54,2.08,2.08,0,0,1,1.54-.64h9.34a2,2,0,0,1,1.32.5,2.31,2.31,0,0,1,.77,1.22l.82,4.09h35.64a2.09,2.09,0,0,1,1.73.81,2,2,0,0,1,.36,1.82Z"/><path class="cls-4" d="M37.78,96v33.82A8,8,0,0,1,29.62,138a8.9,8.9,0,0,1-6.12-2.33,7.48,7.48,0,0,1-2.62-5.83V96a7.19,7.19,0,0,1,2.62-5.54,9,9,0,0,1,6.12-2.33,8.1,8.1,0,0,1,5.69,2.33A7.41,7.41,0,0,1,37.78,96ZM113,86.69H40.41a30.69,30.69,0,0,1,.87-7.14,28.7,28.7,0,0,1,2.48-6.7,37.26,37.26,0,0,1,3.93-6,29.43,29.43,0,0,1,5.25-5.1,50.22,50.22,0,0,1,6.12-3.94l-5.54-10.2c-.58-.77-.39-1.36.59-1.75l1.16.59L61.1,57a37.21,37.21,0,0,1,31.49,0l5.83-10.49c.39-.78.87-.88,1.46-.3a1.35,1.35,0,0,1,.29,1.46l-5.54,10.2A34.55,34.55,0,0,1,108,69.93,30.48,30.48,0,0,1,113,86.69ZM40.7,142.08V89.61H113v52.47a7.93,7.93,0,0,1-2.62,6,8.64,8.64,0,0,1-6.12,2.47H98.42v17.79c0,3.5-1.36,5.92-4.08,7.28a8.39,8.39,0,0,1-8,0c-2.62-1.36-3.94-3.78-3.94-7.28V150.53H71.31v17.79a7.54,7.54,0,0,1-3.94,7.14,8.13,8.13,0,0,1-8,.14c-2.72-1.36-4.08-3.78-4.08-7.28V150.53H49.44a8.64,8.64,0,0,1-6.12-2.47A7.93,7.93,0,0,1,40.7,142.08ZM62.56,72.7a2.8,2.8,0,0,0,.88-2,3.37,3.37,0,0,0-.88-2.19,2.85,2.85,0,0,0-4.37,0,3.37,3.37,0,0,0-.88,2.19,3,3,0,0,0,2.92,2.92A3.16,3.16,0,0,0,62.56,72.7Zm32.94,0a2.77,2.77,0,0,0,.88-2,3.32,3.32,0,0,0-.88-2.19,2.64,2.64,0,0,0-2-1,3.21,3.21,0,0,0-2.77,4.81,2.31,2.31,0,0,0,1.17,1,4.15,4.15,0,0,0,1.6.3A2.8,2.8,0,0,0,95.5,72.7Zm28.57,15.45a8.82,8.82,0,0,1,4.23,1,9.27,9.27,0,0,1,3.2,2.92A6.79,6.79,0,0,1,132.82,96v33.82a7.49,7.49,0,0,1-2.63,5.83,8.9,8.9,0,0,1-6.12,2.33,8,8,0,0,1-5.68-2.33,7.66,7.66,0,0,1-2.48-5.83V96a7.35,7.35,0,0,1,2.48-5.54A8,8,0,0,1,124.07,88.15Z"/><path class="cls-4" d="M456.11,298.06q0,16.43,15.9,24a71.82,71.82,0,0,1-10.69,20.33q-7.56,10.42-15.9,10.69-3.66,0-9.65-2.34a29.22,29.22,0,0,0-10.43-2.35,30.25,30.25,0,0,0-10.56,2.35q-6.12,2.34-9,2.34-5.75.26-12.13-6.26a59.61,59.61,0,0,1-10.16-13.55,97.67,97.67,0,0,1-5.87-12.78A66.49,66.49,0,0,1,374,299.36q0-16.42,9-25.55t21-9.39c2.61,0,6.35.88,11.21,2.61s7.83,2.61,8.87,2.61a14.61,14.61,0,0,0,3.78-.91q2.73-.92,5.61-2.09a38.69,38.69,0,0,1,6.64-2,24.49,24.49,0,0,1,6.91-.52q14.86,1.3,22.16,11.74Q455.85,283.72,456.11,298.06Zm-14.86-43q-8.36,9.91-18,9.12-1-10.43,6.51-18.77a27.19,27.19,0,0,1,8.09-6.26,23.56,23.56,0,0,1,9.64-2.86A25.2,25.2,0,0,1,441.25,255Z"/></g></g></svg>